<?xml version="1.0" encoding="UTF-8" standalone="no"?>
<!-- Created with Inkscape (http://www.inkscape.org/) -->

<svg
   xmlns:osb="http://www.openswatchbook.org/uri/2009/osb"
   xmlns:dc="http://purl.org/dc/elements/1.1/"
   xmlns:cc="http://creativecommons.org/ns#"
   xmlns:rdf="http://www.w3.org/1999/02/22-rdf-syntax-ns#"
   xmlns:svg="http://www.w3.org/2000/svg"
   xmlns="http://www.w3.org/2000/svg"
   xmlns:sodipodi="http://sodipodi.sourceforge.net/DTD/sodipodi-0.dtd"
   xmlns:inkscape="http://www.inkscape.org/namespaces/inkscape"
   width="95.97892mm"
   height="42.191792mm"
   viewBox="0 0 340.08279 149.49847"
   id="svg2"
   version="1.1"
   inkscape:version="0.91 r13725"
   sodipodi:docname="marker-problem.svg">
  <defs
     id="defs4">
    <marker
       inkscape:isstock="true"
       style="overflow:visible"
       id="marker6647"
       refX="0"
       refY="0"
       orient="auto"
       inkscape:stockid="Arrow1Lend">
      <path
         transform="matrix(-0.8,0,0,-0.8,-10,0)"
         style="fill:#000000;fill-opacity:1;fill-rule:evenodd;stroke:#000000;stroke-width:1pt;stroke-opacity:1"
         d="M 0,0 5,-5 -12.5,0 5,5 0,0 Z"
         id="path6649"
         inkscape:connector-curvature="0" />
    </marker>
    <marker
       inkscape:stockid="Arrow1Lend"
       orient="auto"
       refY="0"
       refX="0"
       id="marker6381"
       style="overflow:visible"
       inkscape:isstock="true"
       inkscape:collect="always">
      <path
         id="path6383"
         d="M 0,0 5,-5 -12.5,0 5,5 0,0 Z"
         style="fill:#000000;fill-opacity:1;fill-rule:evenodd;stroke:#000000;stroke-width:1pt;stroke-opacity:1"
         transform="matrix(-0.8,0,0,-0.8,-10,0)"
         inkscape:connector-curvature="0" />
    </marker>
    <linearGradient
       id="linearGradient6360"
       osb:paint="solid">
      <stop
         style="stop-color:#000000;stop-opacity:1;"
         offset="0"
         id="stop6362" />
    </linearGradient>
    <marker
       inkscape:stockid="Arrow1Lend"
       orient="auto"
       refY="0"
       refX="0"
       id="Arrow1Lend"
       style="overflow:visible"
       inkscape:isstock="true">
      <path
         id="path4145"
         d="M 0,0 5,-5 -12.5,0 5,5 0,0 Z"
         style="fill:none;fill-opacity:1;fill-rule:evenodd;stroke:#000000;stroke-width:1pt;stroke-opacity:1"
         transform="matrix(-0.8,0,0,-0.8,-10,0)"
         inkscape:connector-curvature="0" />
    </marker>
  </defs>
  <sodipodi:namedview
     id="base"
     pagecolor="#ffffff"
     bordercolor="#666666"
     borderopacity="1.0"
     inkscape:pageopacity="0.0"
     inkscape:pageshadow="2"
     inkscape:zoom="1.02"
     inkscape:cx="343.38964"
     inkscape:cy="-219.82094"
     inkscape:document-units="px"
     inkscape:current-layer="layer1"
     showgrid="false"
     inkscape:window-width="2556"
     inkscape:window-height="1395"
     inkscape:window-x="4"
     inkscape:window-y="0"
     inkscape:window-maximized="1"
     fit-margin-top="0"
     fit-margin-left="0"
     fit-margin-right="0"
     fit-margin-bottom="0" />
  <metadata
     id="metadata7">
    <rdf:RDF>
      <cc:Work
         rdf:about="">
        <dc:format>image/svg+xml</dc:format>
        <dc:type
           rdf:resource="http://purl.org/dc/dcmitype/StillImage" />
        <dc:title></dc:title>
      </cc:Work>
    </rdf:RDF>
  </metadata>
  <g
     inkscape:label="Layer 1"
     inkscape:groupmode="layer"
     id="layer1"
     transform="translate(-11.004603,-8.2813988)">
    <rect
       style="fill:#ff7f2a;fill-opacity:1;stroke:none;stroke-width:2.9000001;stroke-miterlimit:4;stroke-dasharray:none;stroke-opacity:1"
       id="rect6376"
       width="228.79955"
       height="34.465839"
       x="11.004603"
       y="68.88678" />
    <path
       style="fill:#000000;fill-opacity:1;fill-rule:evenodd;stroke:none;stroke-width:1px;stroke-linecap:butt;stroke-linejoin:miter;stroke-opacity:1"
       d="M 75.149809,14.338471 117.31192,86.059171 75.149809,157.77987 239.8041,86.059171 Z"
       id="path6372"
       inkscape:connector-curvature="0"
       sodipodi:nodetypes="ccccc" />
    <path
       style="fill:none;fill-rule:evenodd;stroke:#000000;stroke-width:0.80000001;stroke-linecap:butt;stroke-linejoin:miter;stroke-miterlimit:4;stroke-dasharray:none;stroke-opacity:1;marker-end:url(#marker6381)"
       d="m 274.45489,68.150721 -28.41422,15.62797"
       id="path6379"
       inkscape:connector-curvature="0"
       sodipodi:nodetypes="cc" />
    <g
       style="font-style:normal;font-weight:normal;font-size:17.5px;line-height:125%;font-family:sans-serif;letter-spacing:0px;word-spacing:0px;fill:#000000;fill-opacity:1;stroke:none;stroke-width:1px;stroke-linecap:butt;stroke-linejoin:miter;stroke-opacity:1"
       id="text6421">
      <path
         d="m 284.71045,64.131073 q -0.26489,-0.153809 -0.58106,-0.222168 -0.30761,-0.0769 -0.68359,-0.0769 -1.33301,0 -2.05078,0.871582 -0.70923,0.863037 -0.70923,2.486572 l 0,5.041504 -1.58081,0 0,-9.570313 1.58081,0 0,1.486817 q 0.49561,-0.871582 1.29028,-1.290283 0.79468,-0.427246 1.93116,-0.427246 0.16235,0 0.35888,0.02563 0.19654,0.01709 0.43579,0.05982 l 0.009,1.61499 z"
         id="path7621"
         inkscape:connector-curvature="0" />
      <path
         d="m 294.20386,67.053436 0,0.769043 -7.22901,0 q 0.10254,1.623535 0.97412,2.478028 0.88013,0.845947 2.44385,0.845947 0.90576,0 1.75171,-0.222168 0.85449,-0.222168 1.6919,-0.666504 l 0,1.486816 q -0.84595,0.358887 -1.73462,0.546875 -0.88868,0.187989 -1.80298,0.187989 -2.29004,0 -3.63159,-1.333008 -1.33301,-1.333008 -1.33301,-3.605957 0,-2.349854 1.26465,-3.725586 1.27319,-1.384277 3.42651,-1.384277 1.93115,0 3.05054,1.247558 1.12793,1.239014 1.12793,3.375244 z m -1.57227,-0.461426 q -0.0171,-1.290283 -0.72632,-2.059326 -0.70068,-0.769043 -1.86279,-0.769043 -1.31592,0 -2.1106,0.743409 -0.78613,0.743408 -0.90576,2.093505 l 5.60547,-0.0085 z"
         id="path7623"
         inkscape:connector-curvature="0" />
      <path
         d="m 301.6123,58.93576 0,1.307374 -1.5039,0 q -0.84595,0 -1.1792,0.341796 -0.32471,0.341797 -0.32471,1.230469 l 0,0.845947 2.58911,0 0,1.221924 -2.58911,0 0,8.348389 -1.58081,0 0,-8.348389 -1.5039,0 0,-1.221924 1.5039,0 0,-0.666503 q 0,-1.597901 0.74341,-2.324219 0.74341,-0.734864 2.3584,-0.734864 l 1.48681,0 z"
         id="path7625"
         inkscape:connector-curvature="0" />
      <path
         d="m 310.04614,70.796112 0,5.075684 -1.58081,0 0,-13.21045 1.58081,0 0,1.452637 q 0.49561,-0.854492 1.24756,-1.264648 0.7605,-0.418701 1.81152,-0.418701 1.74317,0 2.82837,1.384277 1.09375,1.384277 1.09375,3.640137 0,2.255859 -1.09375,3.640136 -1.0852,1.384278 -2.82837,1.384278 -1.05102,0 -1.81152,-0.410157 -0.75195,-0.418701 -1.24756,-1.273193 z m 5.34912,-3.341064 q 0,-1.73462 -0.71777,-2.717286 -0.70923,-0.99121 -1.95679,-0.99121 -1.24756,0 -1.96533,0.99121 -0.70923,0.982666 -0.70923,2.717286 0,1.734619 0.70923,2.72583 0.71777,0.982666 1.96533,0.982666 1.24756,0 1.95679,-0.982666 0.71777,-0.991211 0.71777,-2.72583 z"
         id="path7627"
         inkscape:connector-curvature="0" />
      <path
         d="m 323.34204,63.763641 q -1.26465,0 -1.99951,0.991211 -0.73486,0.982666 -0.73486,2.700196 0,1.717529 0.72631,2.70874 0.73487,0.982666 2.00806,0.982666 1.2561,0 1.99097,-0.991211 0.73486,-0.991211 0.73486,-2.700195 0,-1.70044 -0.73486,-2.691651 -0.73487,-0.999756 -1.99097,-0.999756 z m 0,-1.333007 q 2.05078,0 3.22144,1.333007 1.17065,1.333008 1.17065,3.691407 0,2.349853 -1.17065,3.691406 -1.17066,1.333008 -3.22144,1.333008 -2.05933,0 -3.22998,-1.333008 -1.16211,-1.341553 -1.16211,-3.691406 0,-2.358399 1.16211,-3.691407 1.17065,-1.333007 3.22998,-1.333007 z"
         id="path7629"
         inkscape:connector-curvature="0" />
      <path
         d="m 330.33179,62.661346 1.57226,0 0,9.570313 -1.57226,0 0,-9.570313 z m 0,-3.725586 1.57226,0 0,1.990967 -1.57226,0 0,-1.990967 z"
         id="path7631"
         inkscape:connector-curvature="0" />
      <path
         d="m 343.14062,66.455292 0,5.776367 -1.57226,0 0,-5.725098 q 0,-1.358642 -0.52979,-2.033691 -0.52978,-0.675049 -1.58935,-0.675049 -1.27319,0 -2.00806,0.811768 -0.73486,0.811767 -0.73486,2.213134 l 0,5.408936 -1.58081,0 0,-9.570313 1.58081,0 0,1.486817 q 0.56396,-0.863037 1.32446,-1.290283 0.76904,-0.427246 1.7688,-0.427246 1.64917,0 2.49512,1.02539 0.84594,1.016846 0.84594,2.999268 z"
         id="path7633"
         inkscape:connector-curvature="0" />
      <path
         d="m 347.84888,59.944061 0,2.717285 3.23852,0 0,1.221924 -3.23852,0 0,5.195313 q 0,1.170654 0.31616,1.503906 0.32471,0.333252 1.30737,0.333252 l 1.61499,0 0,1.315918 -1.61499,0 q -1.82007,0 -2.5122,-0.675049 -0.69214,-0.683594 -0.69214,-2.478027 l 0,-5.195313 -1.15357,0 0,-1.221924 1.15357,0 0,-2.717285 1.58081,0 z"
         id="path7635"
         inkscape:connector-curvature="0" />
    </g>
    <g
       style="font-style:normal;font-weight:normal;font-size:17.5px;line-height:125%;font-family:sans-serif;letter-spacing:0px;word-spacing:0px;fill:#000000;fill-opacity:1;stroke:none;stroke-width:1px;stroke-linecap:butt;stroke-linejoin:miter;stroke-opacity:1"
       id="text6629">
      <path
         d="m 181.27322,9.2896996 0,2.7172854 3.23853,0 0,1.221924 -3.23853,0 0,5.195312 q 0,1.170654 0.31617,1.503906 0.3247,0.333252 1.30737,0.333252 l 1.61499,0 0,1.315918 -1.61499,0 q -1.82007,0 -2.51221,-0.675049 -0.69214,-0.683593 -0.69214,-2.478027 l 0,-5.195312 -1.15356,0 0,-1.221924 1.15356,0 0,-2.7172854 1.58081,0 z"
         id="path7602"
         inkscape:connector-curvature="0" />
      <path
         d="m 194.54349,15.80093 0,5.776367 -1.57227,0 0,-5.725097 q 0,-1.358643 -0.52978,-2.033692 -0.52979,-0.675049 -1.58936,-0.675049 -1.27319,0 -2.00806,0.811768 -0.73486,0.811767 -0.73486,2.213135 l 0,5.408935 -1.58081,0 0,-13.2958982 1.58081,0 0,5.2124022 q 0.56397,-0.863037 1.32446,-1.290283 0.76905,-0.427246 1.7688,-0.427246 1.64917,0 2.49512,1.02539 0.84595,1.016846 0.84595,2.999268 z"
         id="path7604"
         inkscape:connector-curvature="0" />
      <path
         d="m 197.69656,12.006985 1.57227,0 0,9.570312 -1.57227,0 0,-9.570312 z m 0,-3.7255862 1.57227,0 0,1.9909672 -1.57227,0 0,-1.9909672 z"
         id="path7606"
         inkscape:connector-curvature="0" />
      <path
         d="m 209.43729,12.374416 0,1.469727 q -0.66651,-0.367432 -1.34156,-0.546875 -0.6665,-0.187988 -1.35009,-0.187988 -1.52955,0 -2.37549,0.974121 -0.84595,0.965576 -0.84595,2.717285 0,1.751709 0.84595,2.72583 0.84594,0.965576 2.37549,0.965576 0.68359,0 1.35009,-0.179443 0.67505,-0.187989 1.34156,-0.55542 l 0,1.452637 q -0.65796,0.307617 -1.36719,0.461425 -0.70068,0.153809 -1.49536,0.153809 -2.16187,0 -3.43506,-1.358643 -1.27319,-1.358642 -1.27319,-3.665771 0,-2.341309 1.28173,-3.682861 1.29029,-1.341553 3.52906,-1.341553 0.72631,0 1.41845,0.153808 0.69214,0.145264 1.34156,0.444336 z"
         id="path7608"
         inkscape:connector-curvature="0" />
      <path
         d="m 212.09476,8.2813988 1.58081,0 0,7.8527832 4.69116,-4.127197 2.00806,0 -5.07569,4.477539 5.28931,5.092773 -2.05078,0 -4.86206,-4.674072 0,4.674072 -1.58081,0 0,-13.2958982 z"
         id="path7610"
         inkscape:connector-curvature="0" />
      <path
         d="m 227.84305,8.2813988 1.57226,0 0,13.2958982 -1.57226,0 0,-13.2958982 z"
         id="path7612"
         inkscape:connector-curvature="0" />
      <path
         d="m 232.69656,12.006985 1.57227,0 0,9.570312 -1.57227,0 0,-9.570312 z m 0,-3.7255862 1.57227,0 0,1.9909672 -1.57227,0 0,-1.9909672 z"
         id="path7614"
         inkscape:connector-curvature="0" />
      <path
         d="m 245.5054,15.80093 0,5.776367 -1.57226,0 0,-5.725097 q 0,-1.358643 -0.52979,-2.033692 -0.52978,-0.675049 -1.58935,-0.675049 -1.2732,0 -2.00806,0.811768 -0.73486,0.811767 -0.73486,2.213135 l 0,5.408935 -1.58082,0 0,-9.570312 1.58082,0 0,1.486816 q 0.56396,-0.863037 1.32446,-1.290283 0.76904,-0.427246 1.7688,-0.427246 1.64917,0 2.49511,1.02539 0.84595,1.016846 0.84595,2.999268 z"
         id="path7616"
         inkscape:connector-curvature="0" />
      <path
         d="m 256.84451,16.399075 0,0.769043 -7.229,0 q 0.10254,1.623535 0.97412,2.478027 0.88013,0.845947 2.44385,0.845947 0.90576,0 1.75171,-0.222168 0.85449,-0.222168 1.69189,-0.666504 l 0,1.486817 q -0.84595,0.358886 -1.73462,0.546875 -0.88867,0.187988 -1.80298,0.187988 -2.29004,0 -3.63159,-1.333008 -1.33301,-1.333008 -1.33301,-3.605957 0,-2.349853 1.26465,-3.725586 1.2732,-1.384277 3.42652,-1.384277 1.93115,0 3.05053,1.247558 1.12793,1.239014 1.12793,3.375245 z m -1.57226,-0.461426 q -0.0171,-1.290283 -0.72632,-2.059326 -0.70068,-0.769043 -1.86279,-0.769043 -1.31592,0 -2.1106,0.743408 -0.78613,0.743408 -0.90576,2.093506 l 5.60547,-0.0085 z"
         id="path7618"
         inkscape:connector-curvature="0" />
    </g>
    <path
       sodipodi:nodetypes="cc"
       inkscape:connector-curvature="0"
       id="path6645"
       d="m 222.37139,27.613417 0,33.793212"
       style="fill:none;fill-rule:evenodd;stroke:#000000;stroke-width:0.80000001;stroke-linecap:butt;stroke-linejoin:miter;stroke-miterlimit:4;stroke-dasharray:none;stroke-opacity:1;marker-end:url(#marker6647)" />
  </g>
</svg>
