<?xml version="1.0" encoding="UTF-8" standalone="no"?>
<svg xmlns="http://www.w3.org/2000/svg" xmlns:xlink="http://www.w3.org/1999/xlink" version="1.2" width="260" height="140"><g><rect y="0" width="20" x="0" height="10" stroke="none" fill="darkorchid" transform="translate(10.0 120.0)"></rect><rect y="0" width="20" x="0" height="30" stroke="none" fill="darkorchid" transform="translate(32.0 100.0)"></rect><rect y="0" width="20" x="0" height="22" stroke="none" fill="darkorchid" transform="translate(54.0 108.0)"></rect><rect y="0" width="20" x="0" height="56" stroke="none" fill="darkorchid" transform="translate(76.0 74.0)"></rect><rect y="0" width="20" x="0" height="90" stroke="none" fill="darkorchid" transform="translate(98.0 40.0)"></rect><rect y="0" width="20" x="0" height="59" stroke="none" fill="darkorchid" transform="translate(120.0 71.0)"></rect><rect y="0" width="20" x="0" height="23" stroke="none" fill="darkorchid" transform="translate(142.0 107.0)"></rect><rect y="0" width="20" x="0" height="12" stroke="none" fill="darkorchid" transform="translate(164.0 118.0)"></rect><rect y="0" width="20" x="0" height="44" stroke="none" fill="darkorchid" transform="translate(186.0 86.0)"></rect><rect y="0" width="20" x="0" height="50" stroke="none" fill="darkorchid" transform="translate(208.0 80.0)"></rect></g></svg>