<?xml version="1.0" encoding="UTF-8" standalone="no"?>
<svg xmlns="http://www.w3.org/2000/svg" xmlns:xlink="http://www.w3.org/1999/xlink" version="1.2" stroke-width="2" stroke="black" width="100%" height="100%"><defs><symbol id="sharp" class="dali-marker sharp-arrow-end" style="overflow:visible;" fill="black" stroke="none"><path d="M 0 0 L -7.333333492279053 8.0 L 14.666666984558105 0 L -7.333333492279053 -8.0 z"></path></symbol><symbol id="triangle" class="dali-marker triangle-arrow-end" style="overflow:visible;" fill="black" stroke="none"><path d="M 0 -8 L 22 0 L 0 8 z"></path></symbol><symbol id="curvy" class="dali-marker curvy-arrow-end" style="overflow:visible;" fill="black" stroke="none"><path d="m -3.3 -8 l 25.299999999999997 8 l -25.299999999999997 8 c 4.4 -4.8, 4.4 -11.2, 0 -16 z"></path></symbol><symbol id="dot" class="dali-marker dot" style="overflow:visible;" fill="black" stroke="none"><circle r="6" cx="0" cy="0"></circle></symbol><symbol id="very-sharp" class="dali-marker sharp-arrow-end" style="overflow:visible;" fill="black" stroke="none"><path d="M 0 0 L -12.0 8.0 L 24.0 0 L -12.0 -8.0 z"></path></symbol></defs><line y1="30" x1="50" y2="30" x2="230" stroke="lightgrey"></line><g><polyline points="50,80 80.83780577061657,41.45274278672929" fill="none"></polyline><use transform="translate(80.83780577061657 41.45274278672929) rotate(-51.34019174590991)" class="marker marker-end" xlink:href="#sharp"></use></g><g><polyline points="80,80 106.25670895380267,47.17911380774667" fill="none"></polyline><use transform="translate(106.25670895380267 47.17911380774667) rotate(-51.34019174590991)" class="marker marker-end" xlink:href="#triangle"></use></g><g><polyline points="110,80 136.25670895380267,47.17911380774667" fill="none"></polyline><use transform="translate(136.25670895380267 47.17911380774667) rotate(-51.34019174590991)" class="marker marker-end" xlink:href="#curvy"></use></g><g><polyline points="140,80 180.0,30.0" fill="none"></polyline><use transform="translate(180.0 30.0) rotate(-51.34019174590991)" class="marker marker-end" xlink:href="#dot"></use></g><g><polyline points="170,80 195.00731885869382,48.74085142663273" fill="none"></polyline><use transform="translate(195.00731885869382 48.74085142663273) rotate(-51.34019174590991)" class="marker marker-end" xlink:href="#very-sharp"></use></g></svg>