<?xml version="1.0" encoding="UTF-8" standalone="no"?>
<svg xmlns="http://www.w3.org/2000/svg" version="1.2" xmlns:xlink="http://www.w3.org/1999/xlink" fill="none" stroke="black" width="170.0" height="80.0"><g><circle cx="20" cy="20" r="20"></circle><circle cx="0" cy="0" r="20" transform="translate(60.0 20.0)"></circle><circle cx="0" cy="0" r="20" transform="translate(100.0 20.0)"></circle><circle cx="0" cy="0" r="20" transform="translate(140.0 20.0)"></circle><circle cx="0" cy="0" r="10" transform="translate(20.0 50.0)"></circle><circle cx="0" cy="0" r="10" transform="translate(60.0 50.0)"></circle><circle cx="0" cy="0" r="10" transform="translate(100.0 50.0)"></circle><circle cx="0" cy="0" r="10" transform="translate(140.0 50.0)"></circle><circle cx="0" cy="0" r="5" transform="translate(20.0 65.0)"></circle><circle cx="0" cy="0" r="5" transform="translate(60.0 65.0)"></circle><circle cx="0" cy="0" r="5" transform="translate(100.0 65.0)"></circle><circle cx="0" cy="0" r="5" transform="translate(140.0 65.0)"></circle></g></svg>