<?xml version="1.0" encoding="UTF-8" standalone="no"?>
<svg xmlns="http://www.w3.org/2000/svg" version="1.2" xmlns:xlink="http://www.w3.org/1999/xlink" stroke="black" stroke-width="2" fill="none" width="150.0" height="288.228515625"><g transform="translate(19.404296875 50.1171875)"><text font-family="Georgia" font-size="20" stroke="none" fill="black" transform="translate(0.0 -9.7265625)">right</text><rect x="0" y="0" width="20" height="20" transform="translate(42.529296875 -25.1171875)"></rect><circle cx="0" cy="0" r="15" transform="translate(77.529296875 -15.1171875)"></circle><polyline points="0,0 20,0 10,20 20,20" transform="translate(92.529296875 -25.1171875)"></polyline></g><g transform="translate(133.505859375 120.126953125)"><text font-family="Georgia" font-size="20" stroke="none" fill="black" transform="translate(-28.525390625 -7.6904296875)">left</text><rect x="0" y="0" width="20" height="20" transform="translate(-53.505859375 -25.126953125)"></rect><circle cx="0" cy="0" r="15" transform="translate(-73.505859375 -15.126953125)"></circle><polyline points="0,0 20,0 10,20 20,20" transform="translate(-113.505859375 -25.126953125)"></polyline></g><g transform="translate(43.1201171875 155.1171875)"><text font-family="Georgia" font-size="20" stroke="none" fill="black" transform="translate(-23.8232421875 0.0)">down</text><rect x="0" y="0" width="20" height="20" transform="translate(-9.296875 5.29296875)"></rect><circle cx="0" cy="0" r="15" transform="translate(0.703125 45.29296875)"></circle><polyline points="0,0 20,0 10,20 20,20" transform="translate(-9.296875 65.29296875)"></polyline></g><g transform="translate(124.658203125 288.12109375)"><text font-family="Georgia" font-size="20" stroke="none" fill="black" transform="translate(-10.9375 -14.228515625)">up</text><rect x="0" y="0" width="20" height="20" transform="translate(-9.658203125 -62.12109375)"></rect><circle cx="0" cy="0" r="15" transform="translate(0.341796875 -95.12109375)"></circle><polyline points="0,0 20,0 10,20 20,20" transform="translate(-9.658203125 -148.12109375)"></polyline></g></svg>