<?xml version="1.0" encoding="UTF-8" standalone="no"?>
<svg xmlns="http://www.w3.org/2000/svg" version="1.2" xmlns:xlink="http://www.w3.org/1999/xlink" width="1290.0" height="679.8935546875"><rect x="165.0" y="425.0" width="470.0" height="150.0" rx="10" ry="10" class="file" id="extractor-box"></rect><rect x="645.0" y="362.5" width="150.0" height="275.0" rx="10" ry="10" class="file" id="limits-clj-box"></rect><rect x="805.0" y="362.5" width="150.0" height="275.0" rx="10" ry="10" class="file" id="incidents-clj-box"></rect><rect x="965.0" y="362.5" width="150.0" height="275.0" rx="10" ry="10" class="file" id="reporter-clj-box"></rect><g class="dep"><polyline points="400.0,450.0 607.790988788967,261.09910110093915" class="connector" stroke-dasharray="7,7"></polyline><use xlink:href="#arrow-head" class="marker marker-end" transform="translate(607.790988788967 261.09910110093915) rotate(-42.27368900609373)" fill="#777777"></use></g><g class="dep"><polyline points="560.0,450.0 615.2587598881553,265.804133706149" class="connector" stroke-dasharray="7,7"></polyline><use xlink:href="#arrow-head" class="marker marker-end" transform="translate(615.2587598881553 265.804133706149) rotate(-73.30075576600638)" fill="#777777"></use></g><g class="dep"><polyline points="720.0,362.5 720.0,210.0 676.5,210.0" class="connector" stroke-dasharray="7,7"></polyline><use xlink:href="#arrow-head" class="marker marker-end" transform="translate(676.5 210.0) rotate(180.0)" fill="#777777"></use></g><g class="dep"><polyline points="720.0,387.5 810.2951669883618,263.3441453910026" class="connector" stroke-dasharray="7,7"></polyline><use xlink:href="#arrow-head" class="marker marker-end" transform="translate(810.2951669883618 263.3441453910026) rotate(-53.9726266148964)" fill="#777777"></use></g><g class="dep"><polyline points="80.0,450.0 80.0,150.0 963.5,150.0" class="connector" stroke-dasharray="7,7"></polyline><use xlink:href="#arrow-head" class="marker marker-end" transform="translate(963.5 150.0) rotate(0.0)" fill="#777777"></use></g><g class="dep"><polyline points="240.0,450.0 240.0,210.0 363.5,210.0" class="connector" stroke-dasharray="7,7"></polyline><use xlink:href="#arrow-head" class="marker marker-end" transform="translate(363.5 210.0) rotate(0.0)" fill="#777777"></use></g><g class="dep"><polyline points="1200.0,450.0 1200.0,150.0 1076.5,150.0" class="connector" stroke-dasharray="7,7"></polyline><use xlink:href="#arrow-head" class="marker marker-end" transform="translate(1076.5 150.0) rotate(180.0)" fill="#777777"></use></g><defs><filter id="ds" x="-20%" y="-20%" width="140%" height="140%"><feGaussianBlur in="SourceAlpha" stdDeviation="3.0" result="blur-out"></feGaussianBlur><feOffset dx="5" dy="5" in="blur-out" result="the-shadow"></feOffset><feColorMatrix in="the-shadow" result="color-out" type="matrix" values="0 0 0 0 0 0 0 0 0 0 0 0 0 0 0 0 0 0 0.3 0"></feColorMatrix><feBlend in="SourceGraphic" in2="color-out" mode="normal"></feBlend></filter><symbol id="arrow-head" class="marker-def curvy-arrow-marker" style="overflow:visible;"><path d="m -2.475 -6.0 l 18.974999999999998 6.0 l -18.974999999999998 6.0 c 3.3000000000000003 -3.5999999999999996, 3.3000000000000003 -8.399999999999999, 0 -12 z"></path></symbol><style type="text/css"><![CDATA[.dep {
  display: block;
}

circle {
  fill: none;
  stroke: #777777;
}

g.dep polyline {
  stroke: #777777;
}

.box-text {
  stroke: black;
}

polyline {
  stroke: black;
}

.main-fun {
  fill: #bf9af2;
}

.corp-fun {
  fill: #e1cca1;
}

.tool {
  fill: #bffdc7;
}

.file {
  fill: #00c3cf;
  stroke: #00acb6;
}

.button {
  fill: #ffffff;
}

.connector {
  fill: none;
}]]></style></defs><text font-family="Georgia" font-size="30" x="50" y="60">Architecture Overview</text><g><g><rect x="1200" y="20" width="80" height="80" rx="10" ry="10" id="deps-toggle" class="button box-text" filter="url(#ds)"></rect><g transform="translate(1239.248046875 56.7880859375)"><text font-family="Verdana" font-size="14" transform="translate(-17.3837890625 0.0)">show</text><text font-family="Verdana" font-size="14" transform="translate(-15.99609375 16.8486328125)">tools</text></g></g></g><g><g transform="translate(80.0 500.0)"><circle cx="0" cy="0" r="50" id="maintenance" class="corp-fun" filter="url(#ds)"></circle><g transform="translate(-0.7177734375 -5.7138671875)"><text font-family="Verdana" font-size="14" transform="translate(-14.51611328125 0.0)">corp</text><text font-family="Verdana" font-size="14" transform="translate(-44.74462890625 19.0634765625)">maintenance</text></g></g><g transform="translate(240.0 500.0)"><circle cx="0" cy="0" r="50" id="extraction" class="main-fun extractor" filter="url(#ds)"></circle><text font-family="Verdana" font-size="14" transform="translate(-0.724609375 5.017578125) translate(-34.29931640625 0.0)">extraction</text></g><g transform="translate(400.0 500.0)"><circle cx="0" cy="0" r="50" id="importing" class="main-fun extractor" filter="url(#ds)"></circle><text font-family="Verdana" font-size="14" transform="translate(-1.1962890625 3.677734375) translate(-32.56640625 0.0)">importing</text></g><g transform="translate(560.0 500.0)"><circle cx="0" cy="0" r="50" id="enrichment" class="main-fun extractor" filter="url(#ds)"></circle><text font-family="Verdana" font-size="14" transform="translate(-0.724609375 5.2294921875) translate(-39.2451171875 0.0)">enrichment</text></g><g id="limits-clj" transform="translate(770.0 437.5)"><g transform="translate(-50.0 0.0)"><circle cx="0" cy="0" r="50" id="limits" class="main-fun" filter="url(#ds)"></circle><text font-family="Verdana" font-size="14" transform="translate(-1.2783203125 5.22607421875) translate(-18.05029296875 0.0)">limits</text></g><g transform="translate(-50.0 125.0)"><circle cx="0" cy="0" r="50" id="corp-targets" class="corp-fun" filter="url(#ds)"></circle><text font-family="Verdana" font-size="14" transform="translate(-0.7177734375 3.46923828125) translate(-41.9453125 0.0)">corp targets</text></g></g><g id="incidents-clj" transform="translate(930.0 437.5)"><g transform="translate(-50.0 0.0)"><circle cx="0" cy="0" r="50" id="limits-grouping" class="main-fun" filter="url(#ds)"></circle><g transform="translate(-1.2783203125 -4.34326171875)"><text font-family="Verdana" font-size="14" transform="translate(-18.05029296875 0.0)">limits</text><text font-family="Verdana" font-size="14" transform="translate(-29.55859375 16.431640625)">grouping</text></g></g><g transform="translate(-50.0 125.0)"><circle cx="0" cy="0" r="50" id="corp-targets-grouping" class="corp-fun" filter="url(#ds)"></circle><g transform="translate(-0.7177734375 -16.41455078125)"><text font-family="Verdana" font-size="14" transform="translate(-14.51611328125 0.0)">corp</text><text font-family="Verdana" font-size="14" transform="translate(-24.09326171875 18.646484375)">targets</text><text font-family="Verdana" font-size="14" transform="translate(-30.119140625 37.78515625)">grouping</text></g></g></g><g id="reporter-clj" transform="translate(1090.0 437.5)"><g transform="translate(-50.0 0.0)"><circle cx="0" cy="0" r="50" id="limits-reporting" class="main-fun" filter="url(#ds)"></circle><g transform="translate(-1.2783203125 -4.34326171875)"><text font-family="Verdana" font-size="14" transform="translate(-18.05029296875 0.0)">limits</text><text font-family="Verdana" font-size="14" transform="translate(-30.9462890625 16.431640625)">reporting</text></g></g><g transform="translate(-50.0 125.0)"><circle cx="0" cy="0" r="50" id="corp-targets-reporting" class="corp-fun" filter="url(#ds)"></circle><g transform="translate(-0.7177734375 -16.41455078125)"><text font-family="Verdana" font-size="14" transform="translate(-14.51611328125 0.0)">corp</text><text font-family="Verdana" font-size="14" transform="translate(-24.09326171875 18.646484375)">targets</text><text font-family="Verdana" font-size="14" transform="translate(-31.5068359375 37.78515625)">reporting</text></g></g></g><g transform="translate(1200.0 500.0)"><circle cx="0" cy="0" r="50" id="corp-actions" class="corp-fun" filter="url(#ds)"></circle><g transform="translate(-0.7177734375 -5.7138671875)"><text font-family="Verdana" font-size="14" transform="translate(-14.51611328125 0.0)">corp</text><text font-family="Verdana" font-size="14" transform="translate(-24.2060546875 19.0634765625)">actions</text></g></g></g><g><g class="dep" transform="translate(180.0 -40.0)"><g><rect x="200" y="210" width="80" height="80" rx="10" ry="10" id="sc" class="tool box-text" filter="url(#ds)"></rect><g transform="translate(238.6328125 238.5927734375)"><text font-family="Verdana" font-size="14" transform="translate(-27.71630859375 0.0)">External</text><text font-family="Verdana" font-size="14" transform="translate(-15.271484375 16.390625)">Data</text><text font-family="Verdana" font-size="14" transform="translate(-15.380859375 33.2392578125)">tools</text></g></g></g><g class="dep" transform="translate(580.0 -40.0)"><g><rect x="0" y="210" width="80" height="80" rx="10" ry="10" id="postgres" class="tool box-text" filter="url(#ds)"></rect><g transform="translate(38.6328125 237.42724609375)"><text font-family="Verdana" font-size="14" transform="translate(-31.9169921875 0.0)">Database</text><text font-family="Verdana" font-size="14" transform="translate(-25.04345703125 16.0419921875)">storage</text><text font-family="Verdana" font-size="14" transform="translate(-15.380859375 35.5703125)">tools</text></g></g></g><g class="dep" transform="translate(780.0 -40.0)"><g><rect x="0" y="210" width="80" height="80" rx="10" ry="10" id="r" class="tool box-text" filter="url(#ds)"></rect><g transform="translate(39.083984375 246.6513671875)"><text font-family="Verdana" font-size="14" transform="translate(-17.40771484375 0.0)">Stats</text><text font-family="Verdana" font-size="14" transform="translate(-15.83203125 16.8486328125)">tools</text></g></g></g><g class="dep" transform="translate(980.0 -40.0)"><g><rect x="0" y="150" width="80" height="80" rx="10" ry="10" id="jira" class="tool box-text" filter="url(#ds)"></rect><g transform="translate(39.0634765625 176.794921875)"><text font-family="Verdana" font-size="14" transform="translate(-18.02978515625 0.0)">Issue</text><text font-family="Verdana" font-size="14" transform="translate(-27.09423828125 16.8486328125)">tracking</text><text font-family="Verdana" font-size="14" transform="translate(-15.8115234375 36.376953125)">tools</text></g></g></g></g><text id="extractor-text" font-family="Verdana" font-size="18" transform="translate(358.48046875 602.638671875)">extractor</text><text id="limits-clj-text" font-family="Verdana" font-size="18" transform="translate(682.0048828125 666.17578125)">limits.clj</text><text id="incidents-clj-text" font-family="Verdana" font-size="18" transform="translate(826.23291015625 666.17578125)">incidents.clj</text><text id="reporter-clj-text" font-family="Verdana" font-size="18" transform="translate(989.55078125 666.17578125)">reporter.clj</text><g><polyline points="130.0,500.0 173.5,500.0" class="connector"></polyline><use xlink:href="#arrow-head" class="marker marker-end" transform="translate(173.5 500.0) rotate(0.0)"></use></g><g><polyline points="290.0,500.0 333.5,500.0" class="connector"></polyline><use xlink:href="#arrow-head" class="marker marker-end" transform="translate(333.5 500.0) rotate(0.0)"></use></g><g><polyline points="450.0,500.0 493.5,500.0" class="connector"></polyline><use xlink:href="#arrow-head" class="marker marker-end" transform="translate(493.5 500.0) rotate(0.0)"></use></g><g><polyline points="610.0,500.0 658.5732248348697,449.4028907970107" class="connector"></polyline><use xlink:href="#arrow-head" class="marker marker-end" transform="translate(658.5732248348697 449.4028907970107) rotate(-46.16913932790743)"></use></g><g><polyline points="610.0,500.0 658.5732248348697,550.5971092029893" class="connector"></polyline><use xlink:href="#arrow-head" class="marker marker-end" transform="translate(658.5732248348697 550.5971092029893) rotate(46.16913932790743)"></use></g><g><polyline points="770.0,437.5 813.5,437.5" class="connector"></polyline><use xlink:href="#arrow-head" class="marker marker-end" transform="translate(813.5 437.5) rotate(0.0)"></use></g><g><polyline points="770.0,562.5 813.5,562.5" class="connector"></polyline><use xlink:href="#arrow-head" class="marker marker-end" transform="translate(813.5 562.5) rotate(0.0)"></use></g><g><polyline points="930.0,437.5 973.5,437.5" class="connector"></polyline><use xlink:href="#arrow-head" class="marker marker-end" transform="translate(973.5 437.5) rotate(0.0)"></use></g><g><polyline points="930.0,562.5 973.5,562.5" class="connector"></polyline><use xlink:href="#arrow-head" class="marker marker-end" transform="translate(973.5 562.5) rotate(0.0)"></use></g><g><polyline points="1090.0,562.5 1138.5732248348697,511.9028907970107" class="connector"></polyline><use xlink:href="#arrow-head" class="marker marker-end" transform="translate(1138.5732248348697 511.9028907970107) rotate(-46.16913932790743)"></use></g><script type="text/ecmascript"><![CDATA[function toggleDeps() {
  s = document.styleSheets[0].cssRules[0].style;
  if(s.display == 'block') { s.display = 'none' } else {s.display = 'block'}
}
document.getElementById('deps-toggle').addEventListener('click', toggleDeps);]]></script></svg>