<?xml version="1.0" encoding="UTF-8" standalone="no"?>
<svg xmlns="http://www.w3.org/2000/svg" version="1.2" xmlns:xlink="http://www.w3.org/1999/xlink" stroke="black" fill="none" width="100%" height="100%"><defs><marker id="sharp" refX="10.0" refY="0" orient="auto" style="overflow:visible;"><path d="M 0 0 L -4.0 4.0 L 10.0 0 L -4.0 -4.0 z" fill="black" stroke="none"></path></marker><symbol id="triangle" class="dali-marker triangle-arrow-end" style="overflow:visible;"><path d="M 0 -4 L 11 0 L 0 4 z" fill="black" stroke="none"></path></symbol><style type="text/css"><![CDATA[.grey {fill: lightgrey;}
rect {fill: white;}
rect:hover {fill: orange;}
text {fill: black; stroke: none;}
.connector {marker-end: url(#sharp);}]]></style></defs><g><rect x="200" y="70" width="120" height="150" id="c"></rect><text transform="translate(243.0078125 149.1279296875)">center</text></g><g><rect x="20" y="20" width="100" height="100" id="a" class="grey"></rect><text transform="translate(65.998046875 74.294921875)">A</text></g><g><rect x="440" y="70" width="50" height="50" id="b"></rect><text transform="translate(460.8779296875 99.294921875)">B</text></g><g><rect x="20" y="350" width="50" height="50" id="d"></rect><text transform="translate(40.5234375 379.294921875)">D</text></g><g><rect x="440" y="230" width="50" height="50" id="e"></rect><text transform="translate(460.845703125 259.294921875)">E</text></g><g><rect x="500" y="70" width="50" height="50" id="f"></rect><text transform="translate(521.1181640625 99.294921875)">F</text></g><g><rect x="350" y="300" width="50" height="50" id="g"></rect><text transform="translate(370.388671875 329.294921875)">G</text></g><polyline points="120.0,70.0 200.0,145.0" class="connector"></polyline><polyline points="320.0,145.0 440.0,95.0" class="connector" stroke="green" stroke-width="2.5"></polyline><polyline points="45.0,350.0 260.0,220.0" class="myclass"></polyline><polyline points="320.0,145.0 465.0,145.0 465.0,230.0" class="connector"></polyline><polyline points="490.0,255.0 525.0,255.0 525.0,120.0" class="connector"></polyline><g><polyline points="465.0,280.0 465.0,325.0 411.0,325.0" class="foo"></polyline><use xlink:href="#triangle" class="marker marker-end" transform="translate(411.0 325.0) rotate(180.0)"></use></g><polyline points="440.0,255.0 375.0,255.0 375.0,300.0" class="connector"></polyline></svg>