<?xml version="1.0" encoding="UTF-8" standalone="no"?>
<svg xmlns="http://www.w3.org/2000/svg" version="1.2" xmlns:xlink="http://www.w3.org/1999/xlink" stroke="black" fill="none" width="100%" height="100%"><defs><style type="text/css"><![CDATA[.marker {fill: black; stroke: none;}]]></style><symbol id="sharp" class="dali-marker sharp-arrow-end" style="overflow:visible;"><path d="M 0 0 L -3.6666667461395264 4.0 L 7.333333492279053 0 L -3.6666667461395264 -4.0 z"></path></symbol><symbol id="big-sharp" class="dali-marker sharp-arrow-end" style="overflow:visible;"><path d="M 0 0 L -7.333333492279053 8.0 L 14.666666984558105 0 L -7.333333492279053 -8.0 z"></path></symbol><symbol id="triangle" class="dali-marker triangle-arrow-end" style="overflow:visible;"><path d="M 0 -4 L 11 0 L 0 4 z"></path></symbol><style type="text/css"><![CDATA[.grey {fill: lightgrey;}
rect {fill: white;}
rect:hover {fill: orange;}
text {fill: black; stroke: none;}]]></style></defs><g><rect x="200" y="70" width="120" height="150" id="c"></rect><text transform="translate(243.0078125 149.1279296875)">center</text></g><g><rect x="20" y="20" width="100" height="100" id="a" class="grey"></rect><text transform="translate(65.998046875 74.294921875)">A</text></g><g><rect x="440" y="70" width="50" height="50" id="b"></rect><text transform="translate(460.8779296875 99.294921875)">B</text></g><g><rect x="20" y="350" width="50" height="50" id="d"></rect><text transform="translate(40.5234375 379.294921875)">D</text></g><g><rect x="440" y="230" width="50" height="50" id="e"></rect><text transform="translate(460.845703125 259.294921875)">E</text></g><g><rect x="500" y="70" width="50" height="50" id="f"></rect><text transform="translate(521.1181640625 99.294921875)">F</text></g><g><rect x="350" y="300" width="50" height="50" id="g"></rect><text transform="translate(370.388671875 329.294921875)">G</text></g><g><polyline points="120.0,70.0 194.65006038701588,139.9844316128274" class="connector"></polyline><use xlink:href="#sharp" class="marker marker-end" transform="translate(194.65006038701588 139.9844316128274) rotate(43.1523897340054)"></use></g><g><polyline points="320.0,145.0 426.4615381681002,100.64102576329158" class="connector" stroke="green" stroke-width="2.5"></polyline><use xlink:href="#big-sharp" class="marker marker-end" transform="translate(426.4615381681002 100.64102576329158) rotate(-22.619864948040426)" style="fill: green;"></use></g><g><polyline points="45.0,350.0 253.72463198439408,223.7944085675757" class="myclass"></polyline><use xlink:href="#sharp" class="marker marker-end" transform="translate(253.72463198439408 223.7944085675757) rotate(-31.159304508344373)"></use></g><g><polyline points="320.0,145.0 465.0,145.0 465.0,222.66666650772095" class="connector"></polyline><use xlink:href="#sharp" class="marker marker-end" transform="translate(465.0 222.66666650772095) rotate(90.0)"></use></g><g><polyline points="490.0,255.0 525.0,255.0 525.0,127.33333349227905" class="connector"></polyline><use xlink:href="#sharp" class="marker marker-end" transform="translate(525.0 127.33333349227905) rotate(-90.0)"></use></g><g><polyline points="465.0,280.0 465.0,325.0 411.0,325.0" class="foo"></polyline><use xlink:href="#triangle" class="marker marker-end" transform="translate(411.0 325.0) rotate(180.0)"></use></g><g><polyline points="440.0,255.0 375.0,255.0 375.0,292.66666650772095" class="connector"></polyline><use xlink:href="#sharp" class="marker marker-end" transform="translate(375.0 292.66666650772095) rotate(90.0)"></use></g></svg>