<?xml version="1.0" encoding="UTF-8" standalone="no"?>
<svg xmlns="http://www.w3.org/2000/svg" version="1.2" xmlns:xlink="http://www.w3.org/1999/xlink" stroke="none" width="135.0" height="220.0"><g data-dali-layout-tag="stack"><g data-dali-layout-tag="distribute"><rect x="10" y="10" width="25" height="50" fill="mediumslateblue"></rect><rect x="10" y="10" width="25" height="30" fill="sandybrown" transform="translate(0.0 50.0)"></rect><rect x="10" y="10" width="25" height="40" fill="green" transform="translate(0.0 100.0)"></rect><rect x="10" y="10" width="25" height="50" fill="orange" transform="translate(0.0 150.0)"></rect></g><g data-dali-layout-tag="distribute" transform="translate(45.0 0.0)"><rect x="10" y="10" width="25" height="50" fill="mediumslateblue"></rect><rect x="10" y="10" width="25" height="30" fill="sandybrown" transform="translate(0.0 70.0)"></rect><rect x="10" y="10" width="25" height="40" fill="green" transform="translate(0.0 110.0)"></rect><rect x="10" y="10" width="25" height="50" fill="orange" transform="translate(0.0 150.0)"></rect></g><g data-dali-layout-tag="distribute" transform="translate(90.0 0.0)"><rect x="10" y="10" width="25" height="50" fill="mediumslateblue"></rect><rect x="10" y="10" width="25" height="30" fill="sandybrown" transform="translate(0.0 60.0)"></rect><rect x="10" y="10" width="25" height="40" fill="green" transform="translate(0.0 105.0)"></rect><rect x="10" y="10" width="25" height="50" fill="orange" transform="translate(0.0 150.0)"></rect></g></g></svg>