<?xml version="1.0" encoding="UTF-8" standalone="no"?>
<svg xmlns="http://www.w3.org/2000/svg" version="1.2" xmlns:xlink="http://www.w3.org/1999/xlink" width="260" height="160"><g transform="translate(10.0 104.771484375)"><g><rect x="0" y="0" width="20" height="10" stroke="none" fill="darkorchid"></rect><text text-family="Verdana" font-size="12" transform="translate(2.9599609375 -6.146484375)">10</text></g><g transform="translate(22.0 -20.0)"><rect x="0" y="0" width="20" height="30" stroke="none" fill="darkorchid"></rect><text text-family="Verdana" font-size="12" transform="translate(3.361328125 -6.15234375)">30</text></g><g transform="translate(44.0 -12.0)"><rect x="0" y="0" width="20" height="22" stroke="none" fill="darkorchid"></rect><text text-family="Verdana" font-size="12" transform="translate(3.466796875 -6.0)">22</text></g><g transform="translate(66.0 -46.0)"><rect x="0" y="0" width="20" height="56" stroke="none" fill="darkorchid"></rect><text text-family="Verdana" font-size="12" transform="translate(3.3525390625 -6.146484375)">56</text></g><g transform="translate(88.0 -80.0)"><rect x="0" y="0" width="20" height="90" stroke="none" fill="darkorchid"></rect><text text-family="Verdana" font-size="12" transform="translate(3.3642578125 -6.146484375)">90</text></g><g transform="translate(110.0 -49.0)"><rect x="0" y="0" width="20" height="59" stroke="none" fill="darkorchid"></rect><text text-family="Verdana" font-size="12" transform="translate(3.3408203125 -6.146484375)">59</text></g><g transform="translate(132.0 -13.0)"><rect x="0" y="0" width="20" height="23" stroke="none" fill="darkorchid"></rect><text text-family="Verdana" font-size="12" transform="translate(3.4228515625 -6.15234375)">23</text></g><g transform="translate(154.0 -2.0)"><rect x="0" y="0" width="20" height="12" stroke="none" fill="darkorchid"></rect><text text-family="Verdana" font-size="12" transform="translate(2.9892578125 -6.0)">12</text></g><g transform="translate(176.0 -34.0)"><rect x="0" y="0" width="20" height="44" stroke="none" fill="darkorchid"></rect><text text-family="Verdana" font-size="12" transform="translate(3.5400390625 -6.0)">44</text></g><g transform="translate(198.0 -40.0)"><rect x="0" y="0" width="20" height="50" stroke="none" fill="darkorchid"></rect><text text-family="Verdana" font-size="12" transform="translate(3.3642578125 -6.146484375)">50</text></g></g></svg>