<?xml version="1.0" encoding="UTF-8" standalone="no"?>
<svg xmlns="http://www.w3.org/2000/svg" version="1.2" xmlns:xlink="http://www.w3.org/1999/xlink" width="260" height="140"><g data-dali-layout-tag="stack" transform="translate(10.0 90.0)"><rect x="0" y="0" width="20" height="10" stroke="none" fill="darkorchid"></rect><rect x="0" y="0" width="20" height="30" stroke="none" fill="darkorchid" transform="translate(22.0 -20.0)"></rect><rect x="0" y="0" width="20" height="22" stroke="none" fill="darkorchid" transform="translate(44.0 -12.0)"></rect><rect x="0" y="0" width="20" height="56" stroke="none" fill="darkorchid" transform="translate(66.0 -46.0)"></rect><rect x="0" y="0" width="20" height="90" stroke="none" fill="darkorchid" transform="translate(88.0 -80.0)"></rect><rect x="0" y="0" width="20" height="59" stroke="none" fill="darkorchid" transform="translate(110.0 -49.0)"></rect><rect x="0" y="0" width="20" height="23" stroke="none" fill="darkorchid" transform="translate(132.0 -13.0)"></rect><rect x="0" y="0" width="20" height="12" stroke="none" fill="darkorchid" transform="translate(154.0 -2.0)"></rect><rect x="0" y="0" width="20" height="44" stroke="none" fill="darkorchid" transform="translate(176.0 -34.0)"></rect><rect x="0" y="0" width="20" height="50" stroke="none" fill="darkorchid" transform="translate(198.0 -40.0)"></rect></g></svg>