<?xml version="1.0" encoding="UTF-8" standalone="no"?>
<svg xmlns="http://www.w3.org/2000/svg" xmlns:xlink="http://www.w3.org/1999/xlink" version="1.2" width="270" height="140"><g><g transform="translate(20.0 130.0)"><rect y="0" width="20" x="0" height="10" stroke="none" fill="darkorchid" transform="translate(-10.0 -10.0)"></rect><text text-family="Verdana" font-size="12" transform="translate(-7.0400390625 -16.146484375)">10</text></g><g transform="translate(42.0 130.0)"><rect y="0" width="20" x="0" height="30" stroke="none" fill="darkorchid" transform="translate(-10.0 -30.0)"></rect><text text-family="Verdana" font-size="12" transform="translate(-6.638671875 -36.15234375)">30</text></g><g transform="translate(64.0 130.0)"><rect y="0" width="20" x="0" height="22" stroke="none" fill="darkorchid" transform="translate(-10.0 -22.0)"></rect><text text-family="Verdana" font-size="12" transform="translate(-6.533203125 -28.0)">22</text></g><g transform="translate(86.0 130.0)"><rect y="0" width="20" x="0" height="56" stroke="none" fill="darkorchid" transform="translate(-10.0 -56.0)"></rect><text text-family="Verdana" font-size="12" transform="translate(-6.6474609375 -62.146484375)">56</text></g><g transform="translate(108.0 130.0)"><rect y="0" width="20" x="0" height="90" stroke="none" fill="darkorchid" transform="translate(-10.0 -90.0)"></rect><text text-family="Verdana" font-size="12" transform="translate(-6.6357421875 -96.146484375)">90</text></g><g transform="translate(130.0 130.0)"><rect y="0" width="20" x="0" height="59" stroke="none" fill="darkorchid" transform="translate(-10.0 -59.0)"></rect><text text-family="Verdana" font-size="12" transform="translate(-6.6591796875 -65.146484375)">59</text></g><g transform="translate(152.0 130.0)"><rect y="0" width="20" x="0" height="23" stroke="none" fill="darkorchid" transform="translate(-10.0 -23.0)"></rect><text text-family="Verdana" font-size="12" transform="translate(-6.5771484375 -29.15234375)">23</text></g><g transform="translate(174.0 130.0)"><rect y="0" width="20" x="0" height="12" stroke="none" fill="darkorchid" transform="translate(-10.0 -12.0)"></rect><text text-family="Verdana" font-size="12" transform="translate(-7.0107421875 -18.0)">12</text></g><g transform="translate(196.0 130.0)"><rect y="0" width="20" x="0" height="44" stroke="none" fill="darkorchid" transform="translate(-10.0 -44.0)"></rect><text text-family="Verdana" font-size="12" transform="translate(-6.4599609375 -50.0)">44</text></g><g transform="translate(218.0 130.0)"><rect y="0" width="20" x="0" height="50" stroke="none" fill="darkorchid" transform="translate(-10.0 -50.0)"></rect><text text-family="Verdana" font-size="12" transform="translate(-6.6357421875 -56.146484375)">50</text></g></g></svg>