<?xml version="1.0" encoding="UTF-8" standalone="no"?>
<svg xmlns="http://www.w3.org/2000/svg" version="1.2" xmlns:xlink="http://www.w3.org/1999/xlink" width="270" height="150"><g data-dali-layout-tag="stack" transform="translate(10.0 130.0)"><g data-dali-layout-tag="stack"><rect x="0" y="0" width="20" height="10" stroke="none" fill="#D46A6A"></rect><rect x="0" y="0" width="20" height="10" stroke="none" fill="#D49A6A" transform="translate(0.0 -10.0)"></rect><rect x="0" y="0" width="20" height="15" stroke="none" fill="#407F7F" transform="translate(0.0 -25.0)"></rect></g><g data-dali-layout-tag="stack" transform="translate(22.0 -20.0)"><rect x="0" y="0" width="20" height="30" stroke="none" fill="#D46A6A"></rect><rect x="0" y="0" width="20" height="10" stroke="none" fill="#D49A6A" transform="translate(0.0 -10.0)"></rect><rect x="0" y="0" width="20" height="20" stroke="none" fill="#407F7F" transform="translate(0.0 -30.0)"></rect></g><g data-dali-layout-tag="stack" transform="translate(44.0 -12.0)"><rect x="0" y="0" width="20" height="22" stroke="none" fill="#D46A6A"></rect><rect x="0" y="0" width="20" height="10" stroke="none" fill="#D49A6A" transform="translate(0.0 -10.0)"></rect><rect x="0" y="0" width="20" height="25" stroke="none" fill="#407F7F" transform="translate(0.0 -35.0)"></rect></g><g data-dali-layout-tag="stack" transform="translate(66.0 -46.0)"><rect x="0" y="0" width="20" height="56" stroke="none" fill="#D46A6A"></rect><rect x="0" y="0" width="20" height="10" stroke="none" fill="#D49A6A" transform="translate(0.0 -10.0)"></rect><rect x="0" y="0" width="20" height="10" stroke="none" fill="#407F7F" transform="translate(0.0 -20.0)"></rect></g><g data-dali-layout-tag="stack" transform="translate(88.0 -80.0)"><rect x="0" y="0" width="20" height="90" stroke="none" fill="#D46A6A"></rect><rect x="0" y="0" width="20" height="10" stroke="none" fill="#D49A6A" transform="translate(0.0 -10.0)"></rect><rect x="0" y="0" width="20" height="30" stroke="none" fill="#407F7F" transform="translate(0.0 -40.0)"></rect></g><g data-dali-layout-tag="stack" transform="translate(110.0 -49.0)"><rect x="0" y="0" width="20" height="59" stroke="none" fill="#D46A6A"></rect><rect x="0" y="0" width="20" height="22" stroke="none" fill="#D49A6A" transform="translate(0.0 -22.0)"></rect><rect x="0" y="0" width="20" height="25" stroke="none" fill="#407F7F" transform="translate(0.0 -47.0)"></rect></g><g data-dali-layout-tag="stack" transform="translate(132.0 -13.0)"><rect x="0" y="0" width="20" height="23" stroke="none" fill="#D46A6A"></rect><rect x="0" y="0" width="20" height="10" stroke="none" fill="#D49A6A" transform="translate(0.0 -10.0)"></rect><rect x="0" y="0" width="20" height="13" stroke="none" fill="#407F7F" transform="translate(0.0 -23.0)"></rect></g><g data-dali-layout-tag="stack" transform="translate(154.0 -2.0)"><rect x="0" y="0" width="20" height="12" stroke="none" fill="#D46A6A"></rect><rect x="0" y="0" width="20" height="6" stroke="none" fill="#D49A6A" transform="translate(0.0 -6.0)"></rect><rect x="0" y="0" width="20" height="8" stroke="none" fill="#407F7F" transform="translate(0.0 -14.0)"></rect></g><g data-dali-layout-tag="stack" transform="translate(176.0 -34.0)"><rect x="0" y="0" width="20" height="44" stroke="none" fill="#D46A6A"></rect><rect x="0" y="0" width="20" height="22" stroke="none" fill="#D49A6A" transform="translate(0.0 -22.0)"></rect><rect x="0" y="0" width="20" height="18" stroke="none" fill="#407F7F" transform="translate(0.0 -40.0)"></rect></g><g data-dali-layout-tag="stack" transform="translate(198.0 -40.0)"><rect x="0" y="0" width="20" height="50" stroke="none" fill="#D46A6A"></rect><rect x="0" y="0" width="20" height="20" stroke="none" fill="#D49A6A" transform="translate(0.0 -20.0)"></rect><rect x="0" y="0" width="20" height="10" stroke="none" fill="#407F7F" transform="translate(0.0 -30.0)"></rect></g></g></svg>