<?xml version="1.0" encoding="UTF-8" standalone="no"?>
<svg xmlns="http://www.w3.org/2000/svg" version="1.2" xmlns:xlink="http://www.w3.org/1999/xlink" stroke-width="2" stroke="black" width="100%" height="100%"><defs><marker id="sharp" refX="10.0" refY="0" orient="auto" style="overflow:visible;"><path d="M 0 0 L -4.0 4.0 L 10.0 0 L -4.0 -4.0 z" fill="black" stroke="none"></path></marker><symbol id="triangle"><path d="M 0 0 L 11 4 L 0 8 z" fill="black" stroke="none"></path></symbol><marker id="curvy" refX="7.7" refY="0" orient="auto" style="overflow:visible;"><path d="M -0.78996659 -4.0017078 L 10.13591 0.01601414 L -0.78996719 4.0337352 c 1.74549835 -2.3720609, 1.73544075 -5.6174519, 0 -8.035443 z" fill="black" stroke="none"></path></marker><marker id="dot" refX="0" refY="0" orient="auto" style="overflow:visible;"><circle cx="0" cy="0" r="2.2"></circle></marker><marker id="very-sharp" refX="16.0" refY="0" orient="auto" style="overflow:visible;"><path d="M 0 0 L -4.0 4.0 L 16.0 0 L -4.0 -4.0 z" fill="black" stroke="none"></path></marker></defs><g transform="translate(0 0)"><g><polyline points="80,80 113.12835447690134,38.58955690387333" fill="none"></polyline><use xlink:href="#triangle" class="marker marker-end" transform="translate(113.12835447690134 38.58955690387333) rotate(-51.34019174590991) translate(0 -4)"></use></g><g><polyline points="80,80 64.08529743989514,40.21324359973785" fill="none"></polyline><use xlink:href="#triangle" class="marker marker-end" transform="translate(64.08529743989514 40.21324359973785) rotate(-111.80140948635182) translate(0 -4)"></use></g><g><polyline points="80,80 80.0,119.0" fill="none"></polyline><use xlink:href="#triangle" class="marker marker-end" transform="translate(80.0 119.0) rotate(90.0) translate(0 -4)"></use></g><g><polyline points="80,80 31.0,80.0" fill="none"></polyline><use xlink:href="#triangle" class="marker marker-end" transform="translate(31.0 80.0) rotate(180.0) translate(0 -4)"></use></g></g><g transform="translate(0 130)"><g><polyline points="102.04202839630928,51.54956592442887 120,30" fill="none"></polyline><use xlink:href="#triangle" class="marker marker-start" transform="translate(102.04202839630928 51.54956592442887) rotate(129.8055710922652) translate(0 -4)"></use></g><g><polyline points="68.26923076923077,49.84615384615385 60,30" fill="none"></polyline><use xlink:href="#triangle" class="marker marker-start" transform="translate(68.26923076923077 49.84615384615385) rotate(67.38013505195958) translate(0 -4)"></use></g><g><polyline points="80.0,111.0 80,130" fill="none"></polyline><use xlink:href="#triangle" class="marker marker-start" transform="translate(80.0 111.0) rotate(-90.0) translate(0 -4)"></use></g><g><polyline points="49.0,80.0 20,80" fill="none"></polyline><use xlink:href="#triangle" class="marker marker-start" transform="translate(49.0 80.0) rotate(0.0) translate(0 -4)"></use></g></g><g transform="translate(0 260)"><g><polyline points="102.04202839630928,51.54956592442887 112.95797160369072,38.45043407557114" fill="none"></polyline><use xlink:href="#triangle" class="marker marker-start" transform="translate(102.04202839630928 51.54956592442887) rotate(129.8055710922652) translate(0 -4)"></use><use xlink:href="#triangle" class="marker marker-end" transform="translate(112.95797160369072 38.45043407557114) rotate(-50.19442890773481) translate(0 -4)"></use></g><g><polyline points="68.26923076923076,49.84615384615385 64.23076923076923,40.15384615384615" fill="none"></polyline><use xlink:href="#triangle" class="marker marker-start" transform="translate(68.26923076923076 49.84615384615385) rotate(67.38013505195956) translate(0 -4)"></use><use xlink:href="#triangle" class="marker marker-end" transform="translate(64.23076923076923 40.15384615384615) rotate(-112.61986494804043) translate(0 -4)"></use></g><g><polyline points="80.0,111.0 80.0,119.0" fill="none"></polyline><use xlink:href="#triangle" class="marker marker-start" transform="translate(80.0 111.0) rotate(-90.0) translate(0 -4)"></use><use xlink:href="#triangle" class="marker marker-end" transform="translate(80.0 119.0) rotate(90.0) translate(0 -4)"></use></g><g><polyline points="49.0,80.0 31.0,80.0" fill="none"></polyline><use xlink:href="#triangle" class="marker marker-start" transform="translate(49.0 80.0) rotate(0.0) translate(0 -4)"></use><use xlink:href="#triangle" class="marker marker-end" transform="translate(31.0 80.0) rotate(180.0) translate(0 -4)"></use></g></g><g transform="translate(0 390)"><g><line x1="80" y1="80" x2="113.12835447690134" y2="38.58955690387333" fill="none"></line><use xlink:href="#triangle" class="marker marker-end" transform="translate(113.12835447690134 38.58955690387333) rotate(-51.34019174590991) translate(0 -4)"></use></g><g><line x1="80" y1="80" x2="64.08529743989514" y2="40.21324359973785" fill="none"></line><use xlink:href="#triangle" class="marker marker-end" transform="translate(64.08529743989514 40.21324359973785) rotate(-111.80140948635182) translate(0 -4)"></use></g><g><line x1="80" y1="80" x2="80.0" y2="119.0" fill="none"></line><use xlink:href="#triangle" class="marker marker-end" transform="translate(80.0 119.0) rotate(90.0) translate(0 -4)"></use></g><g><line x1="80" y1="80" x2="31.0" y2="80.0" fill="none"></line><use xlink:href="#triangle" class="marker marker-end" transform="translate(31.0 80.0) rotate(180.0) translate(0 -4)"></use></g></g><polyline points="110,80 150,30" fill="none" marker-end="url(#curvy)"></polyline><polyline points="140,80 180,30" fill="none" marker-end="url(#dot)"></polyline><polyline points="170,80 210,30" fill="none" marker-end="url(#very-sharp)"></polyline><polyline points="200,80 240,30" fill="none" marker-end="url(#sharp)"></polyline></svg>