<?xml version="1.0" encoding="UTF-8" standalone="no"?>
<svg xmlns="http://www.w3.org/2000/svg" version="1.2" xmlns:xlink="http://www.w3.org/1999/xlink" stroke-width="2" stroke="black" width="100%" height="100%"><defs><symbol id="sharp" class="dali-marker sharp-arrow-end" style="overflow:visible;"><path d="M 0 0 L -7.333333492279053 8.0 L 14.666666984558105 0 L -7.333333492279053 -8.0 z" fill="black" stroke="none"></path></symbol><symbol id="triangle" class="dali-marker triangle-arrow-end" style="overflow:visible;"><path d="M 0 -8 L 22 0 L 0 8 z" fill="black" stroke="none"></path></symbol><symbol id="curvy" class="dali-marker curvy-arrow-end" style="overflow:visible;"><path d="m -1.65 -4 l 12.649999999999999 4 l -12.649999999999999 4 c 2.2 -2.4, 2.2 -5.6, 0 -8 z" fill="black" stroke="none"></path></symbol><symbol id="dot" class="dali-marker dot" style="overflow:visible;"><circle cx="0" cy="0" r="3"></circle></symbol><symbol id="very-sharp" class="dali-marker sharp-arrow-end" style="overflow:visible;"><path d="M 0 0 L -12.0 8.0 L 24.0 0 L -12.0 -8.0 z" fill="black" stroke="none"></path></symbol></defs><line x1="50" y1="30" x2="230" y2="30" stroke="lightgrey"></line><g><polyline points="50,80 80.83780577061657,41.45274278672929" fill="none"></polyline><use xlink:href="#sharp" class="marker marker-end" transform="translate(80.83780577061657 41.45274278672929) rotate(-51.34019174590991)"></use></g><g><polyline points="80,80 106.25670895380267,47.17911380774667" fill="none"></polyline><use xlink:href="#triangle" class="marker marker-end" transform="translate(106.25670895380267 47.17911380774667) rotate(-51.34019174590991)"></use></g><polyline points="110,80 150,30" fill="none" marker-end="curvy"></polyline><polyline points="140,80 180,30" fill="none" marker-end="dot"></polyline><g><polyline points="170,80 195.00731885869382,48.74085142663273" fill="none"></polyline><use xlink:href="#very-sharp" class="marker marker-end" transform="translate(195.00731885869382 48.74085142663273) rotate(-51.34019174590991)"></use></g></svg>