<?xml version="1.0" encoding="UTF-8" standalone="no"?>
<svg xmlns="http://www.w3.org/2000/svg" version="1.2" xmlns:xlink="http://www.w3.org/1999/xlink" width="240.0" height="90.0"><defs><style type="text/css"><![CDATA[polyline {stroke: black; stroke-width: 2;}]]></style><symbol id="sharp" class="marker-def sharp-arrow-marker" style="overflow:visible;"><path d="M 0 0 L -7.333333492279053 8.0 L 14.666666984558105 0 L -7.333333492279053 -8.0 z"></path></symbol><symbol id="triangle" class="marker-def triangle-arrow-marker" style="overflow:visible;"><path d="M 0 -8 L 22 0 L 0 8 z"></path></symbol><symbol id="curvy" class="marker-def curvy-arrow-marker" style="overflow:visible;"><path d="m -3.3 -8 l 25.299999999999997 8 l -25.299999999999997 8 c 4.4 -4.8, 4.4 -11.2, 0 -16 z"></path></symbol><symbol id="dot" class="marker-def dot-marker" style="overflow:visible;"><circle cx="0" cy="0" r="6"></circle></symbol><symbol id="very-sharp" class="marker-def sharp-arrow-marker" style="overflow:visible;"><path d="M 0 0 L -12.0 8.0 L 24.0 0 L -12.0 -8.0 z"></path></symbol></defs><line x1="50" y1="30" x2="230" y2="30" stroke="lightgrey"></line><g><polyline points="50,80 80.83780577061657,41.45274278672929"></polyline><use xlink:href="#sharp" class="marker marker-end" transform="translate(80.83780577061657 41.45274278672929) rotate(-51.34019174590991)" fill="red"></use></g><g><polyline points="80,80 106.25670895380267,47.17911380774667"></polyline><use xlink:href="#triangle" class="marker marker-end" transform="translate(106.25670895380267 47.17911380774667) rotate(-51.34019174590991)"></use></g><g><polyline points="110,80 136.25670895380267,47.17911380774667"></polyline><use xlink:href="#curvy" class="marker marker-end" transform="translate(136.25670895380267 47.17911380774667) rotate(-51.34019174590991)"></use></g><g><polyline points="140,80 180.0,30.0"></polyline><use xlink:href="#dot" class="marker marker-end" transform="translate(180.0 30.0) rotate(-51.34019174590991)"></use></g><g><polyline points="170,80 195.00731885869382,48.74085142663273"></polyline><use xlink:href="#very-sharp" class="marker marker-end" transform="translate(195.00731885869382 48.74085142663273) rotate(-51.34019174590991)"></use></g></svg>