<?xml version="1.0" encoding="UTF-8" standalone="no"?>
<svg xmlns="http://www.w3.org/2000/svg" xmlns:xlink="http://www.w3.org/1999/xlink" version="1.2" stroke-width="2" stroke="black" width="100%" height="100%"><defs><marker id="sharp" refX="10.0" refY="0" orient="auto" style="overflow:visible;"><path d="M 0 0 L -4.0 4.0 L 10.0 0 L -4.0 -4.0 z" fill="black" stroke="none"></path></marker><symbol id="triangle"><path d="M 0 0 L 22 8 L 0 16 z" fill="black" stroke="none"></path></symbol><marker id="curvy" refX="7.7" refY="0" orient="auto" style="overflow:visible;"><path d="M -0.78996659 -4.0017078 L 10.13591 0.01601414 L -0.78996719 4.0337352 c 1.74549835 -2.3720609, 1.73544075 -5.6174519, 0 -8.035443 z" fill="black" stroke="none"></path></marker><marker id="dot" refX="0" refY="0" orient="auto" style="overflow:visible;"><circle r="2.2" cx="0" cy="0"></circle></marker><marker id="very-sharp" refX="16.0" refY="0" orient="auto" style="overflow:visible;"><path d="M 0 0 L -4.0 4.0 L 16.0 0 L -4.0 -4.0 z" fill="black" stroke="none"></path></marker></defs><polyline points="50,80 90,30" fill="none" marker-end="url(#sharp)"></polyline><g><polyline points="80,80 106.25670895380267,47.17911380774667" fill="none"></polyline><use transform="translate(106.25670895380267 47.17911380774667) rotate(-51.34019174590991) translate(0 -8)" class="marker marker-end" xlink:href="#triangle"></use></g><polyline points="110,80 150,30" fill="none" marker-end="url(#curvy)"></polyline><polyline points="140,80 180,30" fill="none" marker-end="url(#dot)"></polyline><polyline points="170,80 210,30" fill="none" marker-end="url(#very-sharp)"></polyline></svg>