<?xml version="1.0" encoding="UTF-8" standalone="no"?>
<svg xmlns="http://www.w3.org/2000/svg" version="1.2" xmlns:xlink="http://www.w3.org/1999/xlink" width="220" height="90" stroke-width="2" stroke="black"><defs><marker id="sharp" refX="10.0" refY="0" orient="auto" style="overflow:visible;"><path d="M 0 0 L -4.0 4.0 L 10.0 0 L -4.0 -4.0 z" fill="black" stroke="none"></path></marker><symbol id="triangle" marker-tip="11 4" marker-base="0 4"><path d="M 0 0 L 11 4 L 0 8 z" fill="black" stroke="none"></path></symbol><marker id="curvy" refX="7.7" refY="0" orient="auto" style="overflow:visible;"><path d="M -0.78996659 -4.0017078 L 10.13591 0.01601414 L -0.78996719 4.0337352 c 1.74549835 -2.3720609, 1.73544075 -5.6174519, 0 -8.035443 z" fill="black" stroke="none"></path></marker><marker id="dot" refX="0" refY="0" orient="auto" style="overflow:visible;"><circle cx="0" cy="0" r="2.2"></circle></marker><marker id="very-sharp" refX="16.0" refY="0" orient="auto" style="overflow:visible;"><path d="M 0 0 L -4.0 4.0 L 16.0 0 L -4.0 -4.0 z" fill="black" stroke="none"></path></marker></defs><polyline points="50,80 90,30" fill="none" marker-end="url(#sharp)"></polyline><g fill="none" marker-end="triangle"><polyline points="80,80 113.12835447690134,38.58955690387333" fill="none"></polyline><use xlink:href="#triangle" transform="translate(113.12835447690134 38.58955690387333) rotate(-51.34019174590991) translate(0 -4)"></use></g><polyline points="110,80 150,30" fill="none" marker-end="url(#curvy)"></polyline><polyline points="140,80 180,30" fill="none" marker-end="url(#dot)"></polyline><polyline points="170,80 210,30" fill="none" marker-end="url(#very-sharp)"></polyline></svg>