<?xml version="1.0" encoding="UTF-8" standalone="no"?>
<svg xmlns="http://www.w3.org/2000/svg" version="1.2" xmlns:xlink="http://www.w3.org/1999/xlink" stroke-width="2" stroke="black" width="100%" height="100%"><defs><symbol id="triangle" class="dali-marker triangle-arrow-end" style="overflow:visible;"><path d="M 0 -4 L 11 0 L 0 4 z" fill="black" stroke="none"></path></symbol><symbol id="sharp" class="dali-marker sharp-arrow-end" style="overflow:visible;"><path d="M 0 0 L -3.6666667461395264 4.0 L 7.333333492279053 0 L -3.6666667461395264 -4.0 z" fill="black" stroke="none"></path></symbol><symbol id="curvy" class="dali-marker curvy-arrow-end" style="overflow:visible;"><path d="m -1.65 -4 l 12.649999999999999 4 l -12.649999999999999 4 c 2.2 -2.4, 2.2 -5.6, 0 -8 z" fill="black" stroke="none"></path></symbol><symbol id="dot" class="dali-marker dot" style="overflow:visible;"><circle cx="0" cy="0" r="3"></circle></symbol></defs><g><g transform="translate(0 0)"><g><polyline points="80,80 113.12835447690134,38.58955690387333" fill="none"></polyline><use xlink:href="#triangle" class="marker marker-end" transform="translate(113.12835447690134 38.58955690387333) rotate(-51.34019174590991)"></use></g><g><polyline points="80,80 64.08529743989514,40.21324359973785" fill="none"></polyline><use xlink:href="#triangle" class="marker marker-end" transform="translate(64.08529743989514 40.21324359973785) rotate(-111.80140948635182)"></use></g><g><polyline points="80,80 80.0,119.0" fill="none"></polyline><use xlink:href="#triangle" class="marker marker-end" transform="translate(80.0 119.0) rotate(90.0)"></use></g><g><polyline points="80,80 31.0,80.0" fill="none"></polyline><use xlink:href="#triangle" class="marker marker-end" transform="translate(31.0 80.0) rotate(180.0)"></use></g></g><g transform="translate(0 130)"><g><polyline points="102.04202839630928,51.54956592442887 120,30" fill="none"></polyline><use xlink:href="#triangle" class="marker marker-start" transform="translate(102.04202839630928 51.54956592442887) rotate(129.8055710922652)"></use></g><g><polyline points="68.26923076923077,49.84615384615385 60,30" fill="none"></polyline><use xlink:href="#triangle" class="marker marker-start" transform="translate(68.26923076923077 49.84615384615385) rotate(67.38013505195958)"></use></g><g><polyline points="80.0,111.0 80,130" fill="none"></polyline><use xlink:href="#triangle" class="marker marker-start" transform="translate(80.0 111.0) rotate(-90.0)"></use></g><g><polyline points="49.0,80.0 20,80" fill="none"></polyline><use xlink:href="#triangle" class="marker marker-start" transform="translate(49.0 80.0) rotate(0.0)"></use></g></g><g transform="translate(0 260)"><g><polyline points="102.04202839630928,51.54956592442887 112.95797160369072,38.45043407557114" fill="none"></polyline><use xlink:href="#triangle" class="marker marker-start" transform="translate(102.04202839630928 51.54956592442887) rotate(129.8055710922652)"></use><use xlink:href="#triangle" class="marker marker-end" transform="translate(112.95797160369072 38.45043407557114) rotate(-50.19442890773481)"></use></g><g><polyline points="68.26923076923076,49.84615384615385 64.23076923076923,40.15384615384615" fill="none"></polyline><use xlink:href="#triangle" class="marker marker-start" transform="translate(68.26923076923076 49.84615384615385) rotate(67.38013505195956)"></use><use xlink:href="#triangle" class="marker marker-end" transform="translate(64.23076923076923 40.15384615384615) rotate(-112.61986494804043)"></use></g><g><polyline points="80.0,111.0 80.0,119.0" fill="none"></polyline><use xlink:href="#triangle" class="marker marker-start" transform="translate(80.0 111.0) rotate(-90.0)"></use><use xlink:href="#triangle" class="marker marker-end" transform="translate(80.0 119.0) rotate(90.0)"></use></g><g><polyline points="49.0,80.0 31.0,80.0" fill="none"></polyline><use xlink:href="#triangle" class="marker marker-start" transform="translate(49.0 80.0) rotate(0.0)"></use><use xlink:href="#triangle" class="marker marker-end" transform="translate(31.0 80.0) rotate(180.0)"></use></g></g><g transform="translate(0 390)"><g><line x1="80" y1="80" x2="113.12835447690134" y2="38.58955690387333" fill="none"></line><use xlink:href="#triangle" class="marker marker-end" transform="translate(113.12835447690134 38.58955690387333) rotate(-51.34019174590991)"></use></g><g><line x1="80" y1="80" x2="64.08529743989514" y2="40.21324359973785" fill="none"></line><use xlink:href="#triangle" class="marker marker-end" transform="translate(64.08529743989514 40.21324359973785) rotate(-111.80140948635182)"></use></g><g><line x1="80" y1="80" x2="80.0" y2="119.0" fill="none"></line><use xlink:href="#triangle" class="marker marker-end" transform="translate(80.0 119.0) rotate(90.0)"></use></g><g><line x1="80" y1="80" x2="31.0" y2="80.0" fill="none"></line><use xlink:href="#triangle" class="marker marker-end" transform="translate(31.0 80.0) rotate(180.0)"></use></g></g><g transform="translate(0 520)"><g><line x1="102.04202839630928" y1="51.54956592442887" x2="120" y2="30" fill="none"></line><use xlink:href="#triangle" class="marker marker-start" transform="translate(102.04202839630928 51.54956592442887) rotate(129.8055710922652)"></use></g><g><line x1="68.26923076923077" y1="49.84615384615385" x2="60" y2="30" fill="none"></line><use xlink:href="#triangle" class="marker marker-start" transform="translate(68.26923076923077 49.84615384615385) rotate(67.38013505195958)"></use></g><g><line x1="80.0" y1="111.0" x2="80" y2="130" fill="none"></line><use xlink:href="#triangle" class="marker marker-start" transform="translate(80.0 111.0) rotate(-90.0)"></use></g><g><line x1="49.0" y1="80.0" x2="20" y2="80" fill="none"></line><use xlink:href="#triangle" class="marker marker-start" transform="translate(49.0 80.0) rotate(0.0)"></use></g></g></g><g><g transform="translate(150 0)"><g><polyline points="80,80 115.41890288530828,35.726371393364644" fill="none"></polyline><use xlink:href="#sharp" class="marker marker-end" transform="translate(115.41890288530828 35.726371393364644) rotate(-51.34019174590991)"></use></g><g><polyline points="80,80 62.72353168562772,36.8088292140693" fill="none"></polyline><use xlink:href="#sharp" class="marker marker-end" transform="translate(62.72353168562772 36.8088292140693) rotate(-111.80140948635182)"></use></g><g><polyline points="80,80 80.0,122.66666650772095" fill="none"></polyline><use xlink:href="#sharp" class="marker marker-end" transform="translate(80.0 122.66666650772095) rotate(90.0)"></use></g><g><polyline points="80,80 27.333333492279053,80.0" fill="none"></polyline><use xlink:href="#sharp" class="marker marker-end" transform="translate(27.333333492279053 80.0) rotate(180.0)"></use></g></g><g transform="translate(150 130)"><g><polyline points="99.69468569929408,54.366377160847094 120,30" fill="none"></polyline><use xlink:href="#sharp" class="marker marker-start" transform="translate(99.69468569929408 54.366377160847094) rotate(129.8055710922652)"></use></g><g><polyline points="69.67948711835422,53.2307690840501 60,30" fill="none"></polyline><use xlink:href="#sharp" class="marker marker-start" transform="translate(69.67948711835422 53.2307690840501) rotate(67.38013505195958)"></use></g><g><polyline points="80.0,107.33333349227905 80,130" fill="none"></polyline><use xlink:href="#sharp" class="marker marker-start" transform="translate(80.0 107.33333349227905) rotate(-90.0)"></use></g><g><polyline points="52.66666650772095,80.0 20,80" fill="none"></polyline><use xlink:href="#sharp" class="marker marker-start" transform="translate(52.66666650772095 80.0) rotate(0.0)"></use></g></g><g transform="translate(150 260)"><g><polyline points="99.69468569929408,54.366377160847094 115.30531430070592,35.633622839152906" fill="none"></polyline><use xlink:href="#sharp" class="marker marker-start" transform="translate(99.69468569929408 54.366377160847094) rotate(129.8055710922652)"></use><use xlink:href="#sharp" class="marker marker-end" transform="translate(115.30531430070592 35.633622839152906) rotate(-50.19442890773481)"></use></g><g><polyline points="69.67948711835422,53.2307690840501 62.82051288164579,36.7692309159499" fill="none"></polyline><use xlink:href="#sharp" class="marker marker-start" transform="translate(69.67948711835422 53.2307690840501) rotate(67.38013505195958)"></use><use xlink:href="#sharp" class="marker marker-end" transform="translate(62.82051288164579 36.7692309159499) rotate(-112.61986494804043)"></use></g><g><polyline points="80.0,107.33333349227905 80.0,122.66666650772095" fill="none"></polyline><use xlink:href="#sharp" class="marker marker-start" transform="translate(80.0 107.33333349227905) rotate(-90.0)"></use><use xlink:href="#sharp" class="marker marker-end" transform="translate(80.0 122.66666650772095) rotate(90.0)"></use></g><g><polyline points="52.66666650772095,80.0 27.333333492279053,80.0" fill="none"></polyline><use xlink:href="#sharp" class="marker marker-start" transform="translate(52.66666650772095 80.0) rotate(0.0)"></use><use xlink:href="#sharp" class="marker marker-end" transform="translate(27.333333492279053 80.0) rotate(180.0)"></use></g></g><g transform="translate(150 390)"><g><line x1="80" y1="80" x2="115.41890288530828" y2="35.726371393364644" fill="none"></line><use xlink:href="#sharp" class="marker marker-end" transform="translate(115.41890288530828 35.726371393364644) rotate(-51.34019174590991)"></use></g><g><line x1="80" y1="80" x2="62.72353168562772" y2="36.8088292140693" fill="none"></line><use xlink:href="#sharp" class="marker marker-end" transform="translate(62.72353168562772 36.8088292140693) rotate(-111.80140948635182)"></use></g><g><line x1="80" y1="80" x2="80.0" y2="122.66666650772095" fill="none"></line><use xlink:href="#sharp" class="marker marker-end" transform="translate(80.0 122.66666650772095) rotate(90.0)"></use></g><g><line x1="80" y1="80" x2="27.333333492279053" y2="80.0" fill="none"></line><use xlink:href="#sharp" class="marker marker-end" transform="translate(27.333333492279053 80.0) rotate(180.0)"></use></g></g><g transform="translate(150 520)"><g><line x1="99.69468569929408" y1="54.366377160847094" x2="120" y2="30" fill="none"></line><use xlink:href="#sharp" class="marker marker-start" transform="translate(99.69468569929408 54.366377160847094) rotate(129.8055710922652)"></use></g><g><line x1="69.67948711835422" y1="53.2307690840501" x2="60" y2="30" fill="none"></line><use xlink:href="#sharp" class="marker marker-start" transform="translate(69.67948711835422 53.2307690840501) rotate(67.38013505195958)"></use></g><g><line x1="80.0" y1="107.33333349227905" x2="80" y2="130" fill="none"></line><use xlink:href="#sharp" class="marker marker-start" transform="translate(80.0 107.33333349227905) rotate(-90.0)"></use></g><g><line x1="52.66666650772095" y1="80.0" x2="20" y2="80" fill="none"></line><use xlink:href="#sharp" class="marker marker-start" transform="translate(52.66666650772095 80.0) rotate(0.0)"></use></g></g></g><g><g transform="translate(300 0)"><g><polyline points="80,80 113.12835447690134,38.58955690387333" fill="none"></polyline><use xlink:href="#curvy" class="marker marker-end" transform="translate(113.12835447690134 38.58955690387333) rotate(-51.34019174590991)"></use></g><g><polyline points="80,80 64.08529743989514,40.21324359973785" fill="none"></polyline><use xlink:href="#curvy" class="marker marker-end" transform="translate(64.08529743989514 40.21324359973785) rotate(-111.80140948635182)"></use></g><g><polyline points="80,80 80.0,119.0" fill="none"></polyline><use xlink:href="#curvy" class="marker marker-end" transform="translate(80.0 119.0) rotate(90.0)"></use></g><g><polyline points="80,80 31.0,80.0" fill="none"></polyline><use xlink:href="#curvy" class="marker marker-end" transform="translate(31.0 80.0) rotate(180.0)"></use></g></g><g transform="translate(300 130)"><g><polyline points="102.04202839630928,51.54956592442887 120,30" fill="none"></polyline><use xlink:href="#curvy" class="marker marker-start" transform="translate(102.04202839630928 51.54956592442887) rotate(129.8055710922652)"></use></g><g><polyline points="68.26923076923077,49.84615384615385 60,30" fill="none"></polyline><use xlink:href="#curvy" class="marker marker-start" transform="translate(68.26923076923077 49.84615384615385) rotate(67.38013505195958)"></use></g><g><polyline points="80.0,111.0 80,130" fill="none"></polyline><use xlink:href="#curvy" class="marker marker-start" transform="translate(80.0 111.0) rotate(-90.0)"></use></g><g><polyline points="49.0,80.0 20,80" fill="none"></polyline><use xlink:href="#curvy" class="marker marker-start" transform="translate(49.0 80.0) rotate(0.0)"></use></g></g><g transform="translate(300 260)"><g><polyline points="102.04202839630928,51.54956592442887 112.95797160369072,38.45043407557114" fill="none"></polyline><use xlink:href="#curvy" class="marker marker-start" transform="translate(102.04202839630928 51.54956592442887) rotate(129.8055710922652)"></use><use xlink:href="#curvy" class="marker marker-end" transform="translate(112.95797160369072 38.45043407557114) rotate(-50.19442890773481)"></use></g><g><polyline points="68.26923076923076,49.84615384615385 64.23076923076923,40.15384615384615" fill="none"></polyline><use xlink:href="#curvy" class="marker marker-start" transform="translate(68.26923076923076 49.84615384615385) rotate(67.38013505195956)"></use><use xlink:href="#curvy" class="marker marker-end" transform="translate(64.23076923076923 40.15384615384615) rotate(-112.61986494804043)"></use></g><g><polyline points="80.0,111.0 80.0,119.0" fill="none"></polyline><use xlink:href="#curvy" class="marker marker-start" transform="translate(80.0 111.0) rotate(-90.0)"></use><use xlink:href="#curvy" class="marker marker-end" transform="translate(80.0 119.0) rotate(90.0)"></use></g><g><polyline points="49.0,80.0 31.0,80.0" fill="none"></polyline><use xlink:href="#curvy" class="marker marker-start" transform="translate(49.0 80.0) rotate(0.0)"></use><use xlink:href="#curvy" class="marker marker-end" transform="translate(31.0 80.0) rotate(180.0)"></use></g></g><g transform="translate(300 390)"><g><line x1="80" y1="80" x2="113.12835447690134" y2="38.58955690387333" fill="none"></line><use xlink:href="#curvy" class="marker marker-end" transform="translate(113.12835447690134 38.58955690387333) rotate(-51.34019174590991)"></use></g><g><line x1="80" y1="80" x2="64.08529743989514" y2="40.21324359973785" fill="none"></line><use xlink:href="#curvy" class="marker marker-end" transform="translate(64.08529743989514 40.21324359973785) rotate(-111.80140948635182)"></use></g><g><line x1="80" y1="80" x2="80.0" y2="119.0" fill="none"></line><use xlink:href="#curvy" class="marker marker-end" transform="translate(80.0 119.0) rotate(90.0)"></use></g><g><line x1="80" y1="80" x2="31.0" y2="80.0" fill="none"></line><use xlink:href="#curvy" class="marker marker-end" transform="translate(31.0 80.0) rotate(180.0)"></use></g></g><g transform="translate(300 520)"><g><line x1="102.04202839630928" y1="51.54956592442887" x2="120" y2="30" fill="none"></line><use xlink:href="#curvy" class="marker marker-start" transform="translate(102.04202839630928 51.54956592442887) rotate(129.8055710922652)"></use></g><g><line x1="68.26923076923077" y1="49.84615384615385" x2="60" y2="30" fill="none"></line><use xlink:href="#curvy" class="marker marker-start" transform="translate(68.26923076923077 49.84615384615385) rotate(67.38013505195958)"></use></g><g><line x1="80.0" y1="111.0" x2="80" y2="130" fill="none"></line><use xlink:href="#curvy" class="marker marker-start" transform="translate(80.0 111.0) rotate(-90.0)"></use></g><g><line x1="49.0" y1="80.0" x2="20" y2="80" fill="none"></line><use xlink:href="#curvy" class="marker marker-start" transform="translate(49.0 80.0) rotate(0.0)"></use></g></g></g><g><g transform="translate(450 0)"><g><polyline points="80,80 120.0,30.0" fill="none"></polyline><use xlink:href="#dot" class="marker marker-end" transform="translate(120.0 30.0) rotate(-51.34019174590991)"></use></g><g><polyline points="80,80 60.0,30.0" fill="none"></polyline><use xlink:href="#dot" class="marker marker-end" transform="translate(60.0 30.0) rotate(-111.80140948635182)"></use></g><g><polyline points="80,80 80.0,130.0" fill="none"></polyline><use xlink:href="#dot" class="marker marker-end" transform="translate(80.0 130.0) rotate(90.0)"></use></g><g><polyline points="80,80 20.0,80.0" fill="none"></polyline><use xlink:href="#dot" class="marker marker-end" transform="translate(20.0 80.0) rotate(180.0)"></use></g></g><g transform="translate(450 130)"><g><polyline points="95.0,60.0 120,30" fill="none"></polyline><use xlink:href="#dot" class="marker marker-start" transform="translate(95.0 60.0) rotate(129.8055710922652)"></use></g><g><polyline points="72.5,60.0 60,30" fill="none"></polyline><use xlink:href="#dot" class="marker marker-start" transform="translate(72.5 60.0) rotate(67.38013505195958)"></use></g><g><polyline points="80.0,100.0 80,130" fill="none"></polyline><use xlink:href="#dot" class="marker marker-start" transform="translate(80.0 100.0) rotate(-90.0)"></use></g><g><polyline points="60.0,80.0 20,80" fill="none"></polyline><use xlink:href="#dot" class="marker marker-start" transform="translate(60.0 80.0) rotate(0.0)"></use></g></g><g transform="translate(450 260)"><g><polyline points="95.0,60.0 120.0,30.0" fill="none"></polyline><use xlink:href="#dot" class="marker marker-start" transform="translate(95.0 60.0) rotate(129.8055710922652)"></use><use xlink:href="#dot" class="marker marker-end" transform="translate(120.0 30.0) rotate(-50.19442890773481)"></use></g><g><polyline points="72.5,60.0 60.0,30.0" fill="none"></polyline><use xlink:href="#dot" class="marker marker-start" transform="translate(72.5 60.0) rotate(67.38013505195958)"></use><use xlink:href="#dot" class="marker marker-end" transform="translate(60.0 30.0) rotate(-112.61986494804043)"></use></g><g><polyline points="80.0,100.0 80.0,130.0" fill="none"></polyline><use xlink:href="#dot" class="marker marker-start" transform="translate(80.0 100.0) rotate(-90.0)"></use><use xlink:href="#dot" class="marker marker-end" transform="translate(80.0 130.0) rotate(90.0)"></use></g><g><polyline points="60.0,80.0 20.0,80.0" fill="none"></polyline><use xlink:href="#dot" class="marker marker-start" transform="translate(60.0 80.0) rotate(0.0)"></use><use xlink:href="#dot" class="marker marker-end" transform="translate(20.0 80.0) rotate(180.0)"></use></g></g><g transform="translate(450 390)"><g><line x1="80" y1="80" x2="120.0" y2="30.0" fill="none"></line><use xlink:href="#dot" class="marker marker-end" transform="translate(120.0 30.0) rotate(-51.34019174590991)"></use></g><g><line x1="80" y1="80" x2="60.0" y2="30.0" fill="none"></line><use xlink:href="#dot" class="marker marker-end" transform="translate(60.0 30.0) rotate(-111.80140948635182)"></use></g><g><line x1="80" y1="80" x2="80.0" y2="130.0" fill="none"></line><use xlink:href="#dot" class="marker marker-end" transform="translate(80.0 130.0) rotate(90.0)"></use></g><g><line x1="80" y1="80" x2="20.0" y2="80.0" fill="none"></line><use xlink:href="#dot" class="marker marker-end" transform="translate(20.0 80.0) rotate(180.0)"></use></g></g><g transform="translate(450 520)"><g><line x1="95.0" y1="60.0" x2="120" y2="30" fill="none"></line><use xlink:href="#dot" class="marker marker-start" transform="translate(95.0 60.0) rotate(129.8055710922652)"></use></g><g><line x1="72.5" y1="60.0" x2="60" y2="30" fill="none"></line><use xlink:href="#dot" class="marker marker-start" transform="translate(72.5 60.0) rotate(67.38013505195958)"></use></g><g><line x1="80.0" y1="100.0" x2="80" y2="130" fill="none"></line><use xlink:href="#dot" class="marker marker-start" transform="translate(80.0 100.0) rotate(-90.0)"></use></g><g><line x1="60.0" y1="80.0" x2="20" y2="80" fill="none"></line><use xlink:href="#dot" class="marker marker-start" transform="translate(60.0 80.0) rotate(0.0)"></use></g></g></g><g><polyline points="10,680 30,700 50,680 70,700 90,680 110,700 130,680 150,700 170,680 182.22182540694797,692.221825406948" fill="none"></polyline><use xlink:href="#triangle" class="marker marker-end" transform="translate(182.22182540694797 692.221825406948) rotate(45.0)"></use></g></svg>