<?xml version="1.0" encoding="UTF-8" standalone="no"?>
<svg xmlns="http://www.w3.org/2000/svg" version="1.2" xmlns:xlink="http://www.w3.org/1999/xlink" width="340.0" height="225.0"><defs><style type="text/css"><![CDATA[polyline {fill: none; stroke: black;}
rect {fill: none; stroke: black;}
]]></style><symbol id="sharp" class="marker-def sharp-arrow-marker" style="overflow:visible;"><path d="M 0 0 L -3.6666667461395264 4.0 L 7.333333492279053 0 L -3.6666667461395264 -4.0 z"></path></symbol></defs><g transform="translate(64.99999904632568 85.0)"><rect x="0" y="0" width="50" height="70" id="c" transform="translate(35.0000005 -34.9999995)"></rect><rect x="0" y="0" width="70" height="50" id="b" transform="translate(105.0000005 -24.9999995)"></rect><rect x="0" y="0" width="30" height="90" id="e" transform="translate(-14.999999500000001 40.0000005)"></rect><rect x="0" y="0" width="30" height="30" id="d" transform="translate(45.0000005 70.0000005)"></rect><rect x="0" y="0" width="50" height="50" id="a" transform="translate(115.0000005 60.0000005)"></rect><rect x="0" y="0" width="70" height="50" transform="translate(195.0000005 60.0000005)"></rect></g><g><polyline points="205.0,145.0 205.0,117.33333349227905" class="connector"></polyline><use xlink:href="#sharp" class="marker marker-end" transform="translate(205.0 117.33333349227905) rotate(-90.0)"></use></g><g><polyline points="170.0,85.0 157.33333349227905,85.0" class="connector"></polyline><use xlink:href="#sharp" class="marker marker-end" transform="translate(157.33333349227905 85.0) rotate(180.0)"></use></g><g><polyline points="125.0,120.0 125.0,147.66666650772095" class="connector"></polyline><use xlink:href="#sharp" class="marker marker-end" transform="translate(125.0 147.66666650772095) rotate(90.0)"></use></g><g><polyline points="110.0,170.0 87.33333349227905,170.0" class="connector"></polyline><use xlink:href="#sharp" class="marker marker-end" transform="translate(87.33333349227905 170.0) rotate(180.0)"></use></g></svg>