<?xml version="1.0" encoding="UTF-8" standalone="no"?>
<svg xmlns="http://www.w3.org/2000/svg" version="1.2" xmlns:xlink="http://www.w3.org/1999/xlink" width="450.0" height="540.0"><defs><style type="text/css"><![CDATA[polyline {fill: none; stroke: black;}
rect {fill: none; stroke: black;}
]]></style><symbol id="sharp" class="marker-def sharp-arrow-marker" style="overflow:visible;"><path d="M 0 0 L -3.6666667461395264 4.0 L 7.333333492279053 0 L -3.6666667461395264 -4.0 z"></path></symbol></defs><g><rect x="0" y="0" width="50" height="50" transform="translate(75.0 75.0)"></rect><rect x="0" y="0" width="50" height="70" id="c" transform="translate(190.0 65.0)"></rect><rect x="0" y="0" width="70" height="50" id="b" transform="translate(280.0 75.0)"></rect><rect x="0" y="0" width="30" height="30" transform="translate(390.0 85.0)"></rect><rect x="0" y="0" width="30" height="90" id="e" transform="translate(85.0 140.0)"></rect><rect x="0" y="0" width="30" height="30" id="d" transform="translate(200.0 170.0)"></rect><rect x="0" y="0" width="50" height="50" id="a" transform="translate(290.0 160.0)"></rect><rect x="0" y="0" width="70" height="50" transform="translate(370.0 160.0)"></rect><rect x="0" y="0" width="100" height="100" transform="translate(50.0 235.0)"></rect><rect x="0" y="0" width="90" height="30" transform="translate(170.0 270.0)"></rect><rect x="0" y="0" width="50" height="50" transform="translate(290.0 260.0)"></rect><rect x="0" y="0" width="20" height="50" transform="translate(395.0 260.0)"></rect></g><g><rect x="0" y="0" width="20" height="20" transform="translate(40.0 390.0)"></rect><rect x="0" y="0" width="20" height="20" transform="translate(70.0 390.0)"></rect><rect x="0" y="0" width="20" height="20" transform="translate(100.0 390.0)"></rect><rect x="0" y="0" width="20" height="20" transform="translate(130.0 390.0)"></rect><rect x="0" y="0" width="20" height="20" transform="translate(160.0 390.0)"></rect><rect x="0" y="0" width="20" height="20" transform="translate(40.0 420.0)"></rect><rect x="0" y="0" width="20" height="20" transform="translate(70.0 420.0)"></rect><rect x="0" y="0" width="20" height="20" transform="translate(100.0 420.0)"></rect><rect x="0" y="0" width="20" height="20" transform="translate(130.0 420.0)"></rect><rect x="0" y="0" width="20" height="20" transform="translate(160.0 420.0)"></rect><rect x="0" y="0" width="20" height="20" transform="translate(40.0 450.0)"></rect><rect x="0" y="0" width="20" height="20" transform="translate(70.0 450.0)"></rect><rect x="0" y="0" width="20" height="20" transform="translate(100.0 450.0)"></rect><rect x="0" y="0" width="20" height="20" transform="translate(130.0 450.0)"></rect><rect x="0" y="0" width="20" height="20" transform="translate(160.0 450.0)"></rect><rect x="0" y="0" width="20" height="20" transform="translate(40.0 480.0)"></rect><rect x="0" y="0" width="20" height="20" transform="translate(70.0 480.0)"></rect><rect x="0" y="0" width="20" height="20" transform="translate(100.0 480.0)"></rect><rect x="0" y="0" width="20" height="20" transform="translate(130.0 480.0)"></rect><rect x="0" y="0" width="20" height="20" transform="translate(160.0 480.0)"></rect><rect x="0" y="0" width="20" height="20" transform="translate(40.0 510.0)"></rect><rect x="0" y="0" width="20" height="20" transform="translate(70.0 510.0)"></rect><rect x="0" y="0" width="20" height="20" transform="translate(100.0 510.0)"></rect><rect x="0" y="0" width="20" height="20" transform="translate(130.0 510.0)"></rect><rect x="0" y="0" width="20" height="20" transform="translate(160.0 510.0)"></rect></g><g><polyline points="315.0,160.0 315.0,132.33333349227905" class="connector"></polyline><use xlink:href="#sharp" class="marker marker-end" transform="translate(315.0 132.33333349227905) rotate(-90.0)"></use></g><g><polyline points="280.0,100.0 247.33333349227905,100.0" class="connector"></polyline><use xlink:href="#sharp" class="marker marker-end" transform="translate(247.33333349227905 100.0) rotate(180.0)"></use></g><g><polyline points="215.0,135.0 215.0,162.66666650772095" class="connector"></polyline><use xlink:href="#sharp" class="marker marker-end" transform="translate(215.0 162.66666650772095) rotate(90.0)"></use></g><g><polyline points="200.0,185.0 122.33333349227905,185.0" class="connector"></polyline><use xlink:href="#sharp" class="marker marker-end" transform="translate(122.33333349227905 185.0) rotate(180.0)"></use></g></svg>