<?xml version="1.0" encoding="UTF-8" standalone="no"?>
<svg xmlns="http://www.w3.org/2000/svg" xmlns:xlink="http://www.w3.org/1999/xlink" version="1.2" width="100%" height="100%"><defs><style type="text/css"><![CDATA[rect {fill: none; stroke: black;}
]]></style></defs><g><rect y="0" width="50" x="0" height="50" transform="translate(75.0 75.0)"></rect><rect y="0" width="50" x="0" height="70" transform="translate(170.0 65.0)"></rect><rect y="0" width="70" x="0" height="50" transform="translate(240.0 75.0)"></rect><rect y="0" width="30" x="0" height="30" transform="translate(330.0 85.0)"></rect><rect y="0" width="30" x="0" height="90" transform="translate(85.0 135.0)"></rect><rect y="0" width="30" x="0" height="30" transform="translate(180.0 165.0)"></rect><rect y="0" width="50" x="0" height="50" transform="translate(250.0 155.0)"></rect><rect y="0" width="70" x="0" height="50" transform="translate(310.0 155.0)"></rect><rect y="0" width="100" x="0" height="100" transform="translate(50.0 225.0)"></rect><rect y="0" width="90" x="0" height="30" transform="translate(150.0 260.0)"></rect><rect y="0" width="50" x="0" height="50" transform="translate(250.0 250.0)"></rect><rect y="0" width="20" x="0" height="50" transform="translate(335.0 250.0)"></rect></g></svg>