<?xml version="1.0" encoding="UTF-8" standalone="no"?>
<svg xmlns="http://www.w3.org/2000/svg" version="1.2" xmlns:xlink="http://www.w3.org/1999/xlink" width="450.0" height="550.0"><defs><style type="text/css"><![CDATA[polyline {fill: none; stroke: black;}
rect {fill: none; stroke: black;}
]]></style><symbol id="sharp" class="marker-def sharp-arrow-marker" style="overflow:visible;"><path d="M 0 0 L -3.6666667461395264 4.0 L 7.333333492279053 0 L -3.6666667461395264 -4.0 z"></path></symbol></defs><g transform="translate(100.0 85.0)"><rect x="0" y="0" width="50" height="50" transform="translate(-25.0 -25.0)"></rect><rect x="0" y="0" width="50" height="70" id="c" transform="translate(90.0 -35.0)"></rect><rect x="0" y="0" width="70" height="50" id="b" transform="translate(180.0 -25.0)"></rect><rect x="0" y="0" width="30" height="30" transform="translate(290.0 -15.0)"></rect><rect x="0" y="0" width="30" height="90" id="e" transform="translate(-15.0 40.0)"></rect><rect x="0" y="0" width="30" height="30" id="d" transform="translate(100.0 70.0)"></rect><rect x="0" y="0" width="50" height="50" id="a" transform="translate(190.0 60.0)"></rect><rect x="0" y="0" width="70" height="50" transform="translate(270.0 60.0)"></rect><rect x="0" y="0" width="100" height="100" transform="translate(-50.0 135.0)"></rect><rect x="0" y="0" width="90" height="30" transform="translate(70.0 170.0)"></rect><rect x="0" y="0" width="50" height="50" transform="translate(190.0 160.0)"></rect><rect x="0" y="0" width="20" height="50" transform="translate(295.0 160.0)"></rect></g><g><polyline points="315.0,145.0 315.0,117.33333349227905" class="connector"></polyline><use xlink:href="#sharp" class="marker marker-end" transform="translate(315.0 117.33333349227905) rotate(-90.0)"></use></g><g><polyline points="280.0,85.0 247.33333349227905,85.0" class="connector"></polyline><use xlink:href="#sharp" class="marker marker-end" transform="translate(247.33333349227905 85.0) rotate(180.0)"></use></g><g><polyline points="215.0,120.0 215.0,147.66666650772095" class="connector"></polyline><use xlink:href="#sharp" class="marker marker-end" transform="translate(215.0 147.66666650772095) rotate(90.0)"></use></g><g><polyline points="200.0,170.0 122.33333349227905,170.0" class="connector"></polyline><use xlink:href="#sharp" class="marker marker-end" transform="translate(122.33333349227905 170.0) rotate(180.0)"></use></g><g transform="translate(60.0 410.0)"><rect x="0" y="0" width="20" height="20" transform="translate(-10.0 -10.0)"></rect><rect x="0" y="0" width="20" height="20" transform="translate(20.0 -10.0)"></rect><rect x="0" y="0" width="20" height="20" transform="translate(50.0 -10.0)"></rect><rect x="0" y="0" width="20" height="20" transform="translate(80.0 -10.0)"></rect><rect x="0" y="0" width="20" height="20" transform="translate(110.0 -10.0)"></rect><rect x="0" y="0" width="20" height="20" transform="translate(-10.0 20.0)"></rect><rect x="0" y="0" width="20" height="20" transform="translate(20.0 20.0)"></rect><rect x="0" y="0" width="20" height="20" transform="translate(50.0 20.0)"></rect><rect x="0" y="0" width="20" height="20" transform="translate(80.0 20.0)"></rect><rect x="0" y="0" width="20" height="20" transform="translate(110.0 20.0)"></rect><rect x="0" y="0" width="20" height="20" transform="translate(-10.0 50.0)"></rect><rect x="0" y="0" width="20" height="20" transform="translate(20.0 50.0)"></rect><rect x="0" y="0" width="20" height="20" transform="translate(50.0 50.0)"></rect><rect x="0" y="0" width="20" height="20" transform="translate(80.0 50.0)"></rect><rect x="0" y="0" width="20" height="20" transform="translate(110.0 50.0)"></rect><rect x="0" y="0" width="20" height="20" transform="translate(-10.0 80.0)"></rect><rect x="0" y="0" width="20" height="20" transform="translate(20.0 80.0)"></rect><rect x="0" y="0" width="20" height="20" transform="translate(50.0 80.0)"></rect><rect x="0" y="0" width="20" height="20" transform="translate(80.0 80.0)"></rect><rect x="0" y="0" width="20" height="20" transform="translate(110.0 80.0)"></rect><rect x="0" y="0" width="20" height="20" transform="translate(-10.0 110.0)"></rect><rect x="0" y="0" width="20" height="20" transform="translate(20.0 110.0)"></rect><rect x="0" y="0" width="20" height="20" transform="translate(50.0 110.0)"></rect><rect x="0" y="0" width="20" height="20" transform="translate(80.0 110.0)"></rect><rect x="0" y="0" width="20" height="20" transform="translate(110.0 110.0)"></rect></g></svg>