<?xml version="1.0" encoding="UTF-8" standalone="no"?>
<svg xmlns="http://www.w3.org/2000/svg" version="1.2" xmlns:xlink="http://www.w3.org/1999/xlink" stroke="black" stroke-width="2" fill="none" width="150.0" height="288.228515625"><g transform="translate(19.404296875 40.390625)"><text font-family="Georgia" font-size="20" stroke="none" fill="black">right</text><rect x="0" y="0" width="20" height="20" transform="translate(42.529296875 -15.390625)"></rect><circle cx="0" cy="0" r="15" transform="translate(77.529296875 -5.390625)"></circle><polyline points="0,0 20,0 10,20 20,20" transform="translate(92.529296875 -15.390625)"></polyline></g><g transform="translate(104.98046875 112.4365234375)"><text font-family="Georgia" font-size="20" stroke="none" fill="black">left</text><rect x="0" y="0" width="20" height="20" transform="translate(-24.98046875 -17.4365234375)"></rect><circle cx="0" cy="0" r="15" transform="translate(-44.98046875 -7.4365234375)"></circle><polyline points="0,0 20,0 10,20 20,20" transform="translate(-84.98046875 -17.4365234375)"></polyline></g><g transform="translate(19.296875 155.1171875)"><text font-family="Georgia" font-size="20" stroke="none" fill="black">down</text><rect x="0" y="0" width="20" height="20" transform="translate(14.5263671875 5.29296875)"></rect><circle cx="0" cy="0" r="15" transform="translate(24.5263671875 45.29296875)"></circle><polyline points="0,0 20,0 10,20 20,20" transform="translate(14.5263671875 65.29296875)"></polyline></g><g transform="translate(113.720703125 273.892578125)"><text font-family="Georgia" font-size="20" stroke="none" fill="black">up</text><rect x="0" y="0" width="20" height="20" transform="translate(1.279296875 -47.892578125)"></rect><circle cx="0" cy="0" r="15" transform="translate(11.279296875 -80.892578125)"></circle><polyline points="0,0 20,0 10,20 20,20" transform="translate(1.279296875 -133.892578125)"></polyline></g></svg>