<?xml version="1.0" encoding="UTF-8"?>
<!DOCTYPE svg PUBLIC "-//W3C//DTD SVG 1.2//EN" "http://www.w3.org/Graphics/SVG/1.2/DTD/svg12.dtd">
<svg fill="none" height="260" stroke-width="2" stroke="black" version="1.2" width="150" xmlns:xlink="http://www.w3.org/1999/xlink" xmlns="http://www.w3.org/2000/svg"><g><text fill="black" font-family="Georgia" font-size="20" stroke="none" transform="translate(19.404296875 25.390625)">right</text><rect height="20" transform="translate(61.93359375 10.0)" width="20" x="0" y="0"></rect><circle cx="0" cy="0" r="15" transform="translate(96.93359375 20.0)"></circle><polyline points="0,0 20,0 10,20 20,20" transform="translate(111.93359375 10.0)"></polyline></g><g><text fill="black" font-family="Georgia" font-size="20" stroke="none" transform="translate(101.455078125 77.4365234375)">left</text><rect height="20" transform="translate(76.474609375 60.0)" width="20" x="0" y="0"></rect><circle cx="0" cy="0" r="15" transform="translate(56.474609375 70.0)"></circle><polyline points="0,0 20,0 10,20 20,20" transform="translate(16.474609375 60.0)"></polyline></g><g><text fill="black" font-family="Georgia" font-size="20" stroke="none" transform="translate(15.4736328125 165.1171875)">down</text><rect height="20" transform="translate(30.0 170.41015625)" width="20" x="0" y="0"></rect><circle cx="0" cy="0" r="15" transform="translate(40.0 210.41015625)"></circle><polyline points="0,0 20,0 10,20 20,20" transform="translate(30.0 230.41015625)"></polyline></g><g><text fill="black" font-family="Georgia" font-size="20" stroke="none" transform="translate(98.720703125 245.6640625)">up</text><rect height="20" transform="translate(100.0 197.771484375)" width="20" x="0" y="0"></rect><circle cx="0" cy="0" r="15" transform="translate(110.0 164.771484375)"></circle><polyline points="0,0 20,0 10,20 20,20" transform="translate(100.0 111.771484375)"></polyline></g></svg>