<?xml version="1.0" encoding="UTF-8"?>
<!DOCTYPE svg PUBLIC "-//W3C//DTD SVG 1.2//EN" "http://www.w3.org/Graphics/SVG/1.2/DTD/svg12.dtd">
<svg xmlns="http://www.w3.org/2000/svg" xmlns:xlink="http://www.w3.org/1999/xlink" version="1.2" width="220" height="130" stroke-width="2" stroke="black" fill="none"><polyline points="10,10 30,30 50,10 70,30 90,10 110,30 130,10 150,30 170,10 190,30"></polyline><polyline points="10,60 15,80 20,60 25,80 30,60 35,80 40,60 45,80 50,60 55,80 60,60 65,80 70,60 75,80 80,60 85,80 90,60 95,80 100,60 105,80 110,60 115,80 120,60 125,80 130,60 135,80 140,60 145,80 150,60 155,80 160,60 165,80 170,60 175,80 180,60 185,80 190,60 195,80 200,60 205,80"></polyline><polyline points="10,100 20,100 30,120 40,120 50,100 60,100 70,120 80,120 90,100 100,100 110,120 120,120 130,100 140,100 150,120 160,120 170,100 180,100 190,120 200,120"></polyline></svg>